<svg width="21" height="21" viewBox="0 0 21 21" fill="none" xmlns="http://www.w3.org/2000/svg">
<g clip-path="url(#clip0_208_2837)">
<path d="M10.5 0.5C4.98583 0.5 0.5 4.98583 0.5 10.5C0.5 16.0142 4.98583 20.5 10.5 20.5C16.0142 20.5 20.5 16.0142 20.5 10.5C20.5 4.98583 16.0142 0.5 10.5 0.5ZM15.2558 15.6725C15.1786 15.7502 15.0868 15.8118 14.9857 15.8538C14.8846 15.8959 14.7762 15.9175 14.6667 15.9175C14.5572 15.9175 14.4487 15.8959 14.3476 15.8538C14.2465 15.8118 14.1547 15.7502 14.0775 15.6725L9.91083 11.5058C9.8333 11.4286 9.77181 11.3368 9.7299 11.2356C9.688 11.1345 9.66651 11.0261 9.66667 10.9167V5.5C9.66667 5.27899 9.75446 5.06702 9.91074 4.91074C10.067 4.75446 10.279 4.66667 10.5 4.66667C10.721 4.66667 10.933 4.75446 11.0893 4.91074C11.2455 5.06702 11.3333 5.27899 11.3333 5.5V10.5717L15.2558 14.4942C15.3333 14.5715 15.3947 14.6633 15.4367 14.7644C15.4786 14.8655 15.5002 14.9739 15.5002 15.0833C15.5002 15.1928 15.4786 15.3011 15.4367 15.4022C15.3947 15.5033 15.3333 15.5952 15.2558 15.6725Z" fill="white"/>
</g>
<defs>
<clipPath id="clip0_208_2837">
<rect width="20" height="20" fill="white" transform="translate(0.5 0.5)"/>
</clipPath>
</defs>
</svg>
