<svg width="168" height="55" viewBox="0 0 168 55" fill="none" xmlns="http://www.w3.org/2000/svg">
<g clip-path="url(#clip0_2023_3375)">
<path d="M32.3497 39.989V40.055H32.4113C32.4228 40.0551 32.4342 40.0522 32.4443 40.0465C32.4483 40.0437 32.4515 40.0399 32.4537 40.0355C32.4558 40.0311 32.4569 40.0262 32.4567 40.0213C32.4569 40.0165 32.4558 40.0117 32.4537 40.0074C32.4515 40.0031 32.4483 39.9994 32.4443 39.9967C32.4343 39.9907 32.4229 39.9878 32.4113 39.9883H32.3497V39.989ZM32.4119 39.9423C32.4383 39.9406 32.4644 39.9482 32.4859 39.9637C32.4944 39.9708 32.5013 39.9797 32.5058 39.9898C32.5103 40 32.5123 40.011 32.5118 40.0221C32.5122 40.0317 32.5105 40.0412 32.5069 40.05C32.5033 40.0589 32.4979 40.0669 32.491 40.0734C32.4745 40.0878 32.4537 40.0964 32.4319 40.098L32.5144 40.1921H32.4509L32.375 40.0987H32.3504V40.1921H32.2973V39.9424H32.4128L32.4119 39.9423ZM32.3954 40.2782C32.4233 40.2785 32.4509 40.2728 32.4765 40.2617C32.5011 40.2511 32.5235 40.2359 32.5425 40.217C32.5615 40.1981 32.5767 40.1757 32.5872 40.151C32.6088 40.0987 32.6088 40.0399 32.5872 39.9876C32.5765 39.9631 32.5613 39.9407 32.5425 39.9216C32.5235 39.9027 32.5011 39.8875 32.4765 39.8769C32.4508 39.8664 32.4232 39.8611 32.3954 39.8614C32.3672 39.8612 32.3392 39.8664 32.3129 39.8769C32.2878 39.8873 32.2648 39.9025 32.2455 39.9216C32.2163 39.9516 32.1965 39.9894 32.1887 40.0305C32.1809 40.0716 32.1853 40.1141 32.2014 40.1526C32.2114 40.1774 32.2264 40.1999 32.2455 40.2186C32.2649 40.2378 32.2878 40.2529 32.3129 40.2634C32.339 40.2745 32.3671 40.2801 32.3954 40.2799M32.3954 39.8014C32.468 39.8013 32.5376 39.8297 32.5893 39.8806C32.6143 39.905 32.6341 39.9341 32.6477 39.9662C32.6618 39.9992 32.6691 40.0347 32.6691 40.0706C32.6691 40.1064 32.6618 40.1419 32.6477 40.1749C32.6338 40.2069 32.614 40.2359 32.5893 40.2606C32.564 40.2848 32.5346 40.3044 32.5024 40.3183C32.4686 40.3327 32.4322 40.34 32.3954 40.3398C32.3583 40.34 32.3215 40.3327 32.2872 40.3183C32.2546 40.3047 32.2249 40.2851 32.1996 40.2606C32.1749 40.235 32.1554 40.205 32.142 40.1721C32.1279 40.1391 32.1206 40.1036 32.1206 40.0678C32.1206 40.0319 32.1279 39.9964 32.142 39.9634C32.1556 39.9313 32.1755 39.9022 32.2004 39.8778C32.2254 39.8528 32.2552 39.8331 32.288 39.82C32.3223 39.8056 32.3591 39.7983 32.3963 39.7986M7.13064 38.8373C7.13064 38.3612 7.44249 37.9702 7.95218 37.9702C8.43926 37.9702 8.76794 38.3444 8.76794 38.8373C8.76794 39.3301 8.43926 39.7043 7.95218 39.7043C7.44249 39.7043 7.13064 39.3133 7.13064 38.8373ZM9.32316 38.8373V37.4826H8.73427V37.8126C8.54749 37.5687 8.26419 37.4158 7.87892 37.4158C7.11992 37.4158 6.52427 38.0111 6.52427 38.8379C6.52427 39.6647 7.11959 40.2601 7.87892 40.2601C8.26403 40.2601 8.54749 40.1069 8.73427 39.8632V40.1921H9.3225V38.8373H9.32316ZM29.2208 38.8373C29.2208 38.3612 29.5327 37.9702 30.0425 37.9702C30.5301 37.9702 30.8583 38.3444 30.8583 38.8373C30.8583 39.3301 30.5301 39.7043 30.0425 39.7043C29.5329 39.7043 29.2208 39.3133 29.2208 38.8373ZM31.414 38.8373V36.3953H30.8246V37.8126C30.6379 37.5687 30.3546 37.4158 29.9693 37.4158C29.2103 37.4158 28.6146 38.0111 28.6146 38.8379C28.6146 39.6647 29.2099 40.2601 29.9693 40.2601C30.3546 40.2601 30.6379 40.1069 30.8246 39.8632V40.1921H31.414V38.8373ZM16.632 37.9423C17.0115 37.9423 17.2552 38.1802 17.3174 38.5992H15.9123C15.9751 38.2081 16.2126 37.9423 16.6322 37.9423M16.6439 37.4143C15.8502 37.4143 15.295 37.9918 15.295 38.8364C15.295 39.6976 15.8725 40.2586 16.6833 40.2586C17.0912 40.2586 17.4648 40.1568 17.7934 39.8791L17.5049 39.4426C17.2778 39.6241 16.9887 39.726 16.717 39.726C16.3375 39.726 15.992 39.5502 15.907 39.0627H17.9178C17.9236 38.9894 17.9296 38.9155 17.9296 38.8363C17.9236 37.992 17.4016 37.4141 16.6435 37.4141M23.7534 38.8363C23.7534 38.3602 24.0653 37.9692 24.5749 37.9692C25.062 37.9692 25.3907 38.3434 25.3907 38.8363C25.3907 39.3291 25.062 39.7033 24.5749 39.7033C24.0653 39.7033 23.7532 39.3123 23.7532 38.8363M25.9458 38.8363V37.4826H25.3572V37.8126C25.1698 37.5687 24.8871 37.4158 24.5018 37.4158C23.7428 37.4158 23.1472 38.0111 23.1472 38.8379C23.1472 39.6647 23.7425 40.2601 24.5018 40.2601C24.8871 40.2601 25.1698 40.1069 25.3572 39.8632V40.1921H25.9459V38.8373L25.9458 38.8363ZM20.4278 38.8363C20.4278 39.6578 20.9997 40.2584 21.8726 40.2584C22.2804 40.2584 22.5522 40.1677 22.8461 39.9355L22.5633 39.4595C22.3422 39.6184 22.11 39.7033 21.8538 39.7033C21.3837 39.6976 21.038 39.3577 21.038 38.8363C21.038 38.3149 21.3837 37.9751 21.8538 37.9692C22.1093 37.9692 22.3415 38.0542 22.5633 38.2131L22.8461 37.737C22.5517 37.5049 22.28 37.4141 21.8726 37.4141C20.9997 37.4141 20.4278 38.0146 20.4278 38.8363ZM28.0195 37.4141C27.6797 37.4141 27.4585 37.573 27.3055 37.811V37.4826H26.7219V40.1906H27.3115V38.6726C27.3115 38.2245 27.504 37.9755 27.889 37.9755C28.015 37.9736 28.1402 37.9968 28.2572 38.0436L28.4387 37.4886C28.3084 37.4372 28.1384 37.4146 28.0191 37.4146M12.2346 37.6979C11.9513 37.5112 11.5609 37.4146 11.1302 37.4146C10.4442 37.4146 10.0025 37.7435 10.0025 38.2815C10.0025 38.7231 10.3313 38.9955 10.9369 39.0805L11.2151 39.1201C11.538 39.1654 11.6904 39.2504 11.6904 39.4034C11.6904 39.6128 11.4759 39.7322 11.0731 39.7322C10.6653 39.7322 10.3709 39.6019 10.1724 39.4489L9.89571 39.9081C10.2186 40.146 10.6265 40.2596 11.0682 40.2596C11.8503 40.2596 12.3036 39.8913 12.3036 39.3757C12.3036 38.8996 11.9468 38.6506 11.3574 38.5657L11.0799 38.5254C10.825 38.4924 10.6207 38.4411 10.6207 38.2596C10.6207 38.0616 10.8133 37.9425 11.1363 37.9425C11.482 37.9425 11.8166 38.0728 11.9806 38.1746L12.2356 37.6986L12.2346 37.6979ZM19.833 37.4151C19.4933 37.4151 19.272 37.574 19.1197 37.812V37.4826H18.5361V40.1906H19.125V38.6726C19.125 38.2245 19.3175 37.9755 19.7025 37.9755C19.8285 37.9736 19.9537 37.9968 20.0708 38.0436L20.2523 37.4886C20.1219 37.4372 19.952 37.4146 19.8327 37.4146M14.8078 37.4826H13.8448V36.6611H13.2495V37.4826H12.7002V38.0208H13.2495V39.2562C13.2495 39.8845 13.4934 40.2587 14.19 40.2587C14.4456 40.2587 14.7399 40.1795 14.9267 40.0494L14.7566 39.5451C14.5809 39.6469 14.3883 39.6982 14.2352 39.6982C13.9409 39.6982 13.8448 39.5167 13.8448 39.245V38.0213H14.8078V37.4826ZM6.00353 40.1913V38.4918C6.00353 37.8517 5.59565 37.4211 4.93812 37.4153C4.59245 37.4095 4.23588 37.5171 3.98624 37.8971C3.79946 37.5968 3.5051 37.4153 3.09128 37.4153C2.80203 37.4153 2.51939 37.5003 2.29812 37.8174V37.4826H1.70874V40.1906H2.30274V38.6891C2.30274 38.219 2.56344 37.9692 2.96604 37.9692C3.35709 37.9692 3.55493 38.2241 3.55493 38.6832V40.1903H4.15025V38.6888C4.15025 38.2187 4.422 37.9689 4.81289 37.9689C5.21499 37.9689 5.40689 38.2238 5.40689 38.6828V40.1899L6.00353 40.1913Z" fill="#ADADAD"/>
<path d="M32.6855 31.1831V30.7871H32.5824L32.4631 31.0589L32.3445 30.7871H32.241V31.1831H32.3143V30.8848L32.4258 31.1422H32.5017L32.6132 30.8841V31.1831H32.6858H32.6855ZM32.0313 31.1831V30.8549H32.1633V30.7881H31.826V30.8549H31.958V31.1831H32.0306H32.0313Z" fill="#F79410"/>
<path d="M20.9644 32.8815H12.0402V16.8435H20.9646L20.9644 32.8815Z" fill="#ADADAD"/>
<path d="M12.606 24.8629C12.606 21.6096 14.1293 18.7115 16.5013 16.8439C14.7058 15.4281 12.485 14.6597 10.1985 14.6631C4.56588 14.6631 0 19.2296 0 24.8629C0 30.4962 4.56588 35.0627 10.1985 35.0627C12.4851 35.0661 14.7059 34.2977 16.5015 32.8819C14.1296 31.0146 12.606 28.1164 12.606 24.8629Z" fill="#ADADAD"/>
<path d="M33.0041 24.8629C33.0041 30.4962 28.4382 35.0627 22.8056 35.0627C20.5188 35.0661 18.2977 34.2977 16.5018 32.8819C18.8745 31.0143 20.3978 28.1164 20.3978 24.8629C20.3978 21.6094 18.8745 18.7115 16.5018 16.8439C18.2977 15.4282 20.5187 14.6598 22.8055 14.6631C28.4381 14.6631 33.0039 19.2296 33.0039 24.8629" fill="#D1D1D1"/>
</g>
<g clip-path="url(#clip1_2023_3375)">
<path d="M65.4223 34.7585H61.6454L64.0059 20.2514H67.7833L65.4223 34.7585ZM58.468 20.2514L54.8672 30.2295L54.4411 28.0808L54.4415 28.0816L53.1706 21.5576C53.1706 21.5576 53.0169 20.2514 51.379 20.2514H45.4262L45.3563 20.497C45.3563 20.497 47.1767 20.8758 49.3071 22.1552L52.5885 34.7589H56.5238L62.5329 20.2514H58.468ZM88.1756 34.7585H91.6437L88.6199 20.251H85.5838C84.1817 20.251 83.8403 21.3321 83.8403 21.3321L78.2072 34.7585H82.1445L82.9318 32.6036H87.7332L88.1756 34.7585ZM84.0195 29.6269L86.0041 24.1979L87.1205 29.6269H84.0195ZM78.5025 23.74L79.0415 20.6247C79.0415 20.6247 77.3783 19.9922 75.6445 19.9922C73.7702 19.9922 69.3192 20.8114 69.3192 24.7948C69.3192 28.5426 74.5432 28.5892 74.5432 30.5578C74.5432 32.5264 69.8574 32.1737 68.311 30.9323L67.7495 34.1896C67.7495 34.1896 69.436 35.0088 72.0127 35.0088C74.5902 35.0088 78.4785 33.6743 78.4785 30.0421C78.4785 26.2702 73.2075 25.919 73.2075 24.279C73.2079 22.6387 76.8863 22.8494 78.5025 23.74Z" fill="#ADADAD"/>
<path d="M54.4415 28.0814L53.1706 21.5574C53.1706 21.5574 53.0169 20.2512 51.379 20.2512H45.4262L45.3563 20.4969C45.3563 20.4969 48.2175 21.0898 50.9618 23.3114C53.5858 25.4349 54.4415 28.0814 54.4415 28.0814Z" fill="#ADADAD"/>
</g>
<path d="M108.038 19.1667H113.4C113.888 19.1667 115.35 19 116 21.3333C116.488 22.8333 117.138 25.1667 118.113 28.6667H118.438C119.413 25 120.225 22.5 120.55 21.3333C121.2 19 122.825 19.1667 123.475 19.1667H128.513V35.1667H123.313V25.6667H122.988L120.225 35.1667H116.325L113.563 25.6667H113.075V35.1667H108.038M130.625 19.1667H135.825V28.6667H136.313L139.725 20.8333C140.375 19.3333 141.838 19.1667 141.838 19.1667H146.713V35.1667H141.513V25.6667H141.188L137.775 33.5C137.125 35 135.5 35.1667 135.5 35.1667H130.625M153.7 30.3333V35.1667H148.825V26.8333H164.75C164.1 28.8333 161.825 30.3333 159.225 30.3333" fill="#ADADAD"/>
<path d="M165.075 25.8334C165.725 22.8334 163.775 19.1667 159.55 19.1667H148.5C148.825 22.6667 151.75 25.8334 154.837 25.8334" fill="#ADADAD"/>
<defs>
<clipPath id="clip0_2023_3375">
<rect width="33" height="33" fill="white" transform="translate(0 11)"/>
</clipPath>
<clipPath id="clip1_2023_3375">
<rect width="55" height="55" fill="white" transform="translate(41)"/>
</clipPath>
</defs>
</svg>
