<svg width="21" height="21" viewBox="0 0 21 21" fill="none" xmlns="http://www.w3.org/2000/svg">
<path d="M14.3587 12.7647L13.9285 13.1909C13.9285 13.1909 12.9061 14.204 10.1153 11.4386C7.32445 8.6732 8.34689 7.66008 8.34689 7.66008L8.61775 7.39166C9.2851 6.73045 9.348 5.66886 8.76575 4.89387L7.57486 3.30854C6.85427 2.34933 5.46186 2.22262 4.63593 3.04101L3.15353 4.5099C2.744 4.9157 2.46957 5.44174 2.50285 6.02529C2.58799 7.51819 3.26579 10.7303 7.04796 14.478C11.0588 18.4522 14.8221 18.6102 16.3611 18.4672C16.8478 18.422 17.2711 18.175 17.6123 17.8369L18.9539 16.5076C19.8596 15.6102 19.6042 14.0717 18.4454 13.444L16.6411 12.4665C15.8802 12.0544 14.9534 12.1754 14.3587 12.7647Z" fill="white"/>
</svg>
