<svg width="20" height="21" viewBox="0 0 20 21" fill="none" xmlns="http://www.w3.org/2000/svg">
<g clip-path="url(#clip0_2002_2410)">
<path d="M13.8587 12.7725L13.4285 13.1987C13.4285 13.1987 12.406 14.2118 9.6152 11.4464C6.82439 8.68101 7.84683 7.66789 7.84683 7.66789L8.11769 7.39947C8.78504 6.73826 8.84794 5.67667 8.26569 4.90168L7.0748 3.31636C6.35421 2.35715 4.9618 2.23043 4.13587 3.04883L2.65347 4.51772C2.24394 4.92351 1.96951 5.44955 2.00279 6.0331C2.08793 7.52601 2.76573 10.7381 6.54789 14.4858C10.5587 18.46 14.322 18.618 15.861 18.475C16.3478 18.4298 16.7711 18.1828 17.1122 17.8447L18.4539 16.5154C19.3595 15.618 19.1041 14.0795 17.9454 13.4518L16.141 12.4743C15.3802 12.0622 14.4533 12.1832 13.8587 12.7725Z" fill="#9799A0"/>
</g>
<defs>
<clipPath id="clip0_2002_2410">
<rect y="0.507812" width="20" height="20" rx="10" fill="white"/>
</clipPath>
</defs>
</svg>
