<svg width="21" height="19" viewBox="0 0 21 19" fill="none" xmlns="http://www.w3.org/2000/svg">
<path d="M10.5 0C6.35813 0 3 3.19022 3 7.125C3 8.67439 3.53469 10.0961 4.42344 11.2605C4.43938 11.2884 4.44187 11.3195 4.46 11.3463L9.46 18.4713C9.69188 18.8017 10.0825 19 10.5 19C10.9175 19 11.3081 18.8017 11.54 18.4713L16.54 11.3463C16.5584 11.3195 16.5606 11.2884 16.5766 11.2605C17.4653 10.0961 18 8.67439 18 7.125C18 3.19022 14.6419 0 10.5 0ZM10.5 9.5C9.11937 9.5 8 8.43659 8 7.125C8 5.81341 9.11937 4.75 10.5 4.75C11.8806 4.75 13 5.81341 13 7.125C13 8.43659 11.8806 9.5 10.5 9.5Z" fill="white"/>
</svg>
