<svg width="16" height="19" viewBox="0 0 16 19" fill="none" xmlns="http://www.w3.org/2000/svg">
<g clip-path="url(#clip0_2002_2404)">
<path d="M8 0.207764C3.72006 0.207764 0.25 3.33082 0.25 7.18276C0.25 8.69953 0.80251 10.0913 1.72089 11.2312C1.73735 11.2585 1.73994 11.289 1.75867 11.3152L6.92533 18.2902C7.16494 18.6136 7.56858 18.8078 8 18.8078C8.43142 18.8078 8.83506 18.6136 9.07467 18.2902L14.2413 11.3152C14.2604 11.289 14.2626 11.2585 14.2791 11.2312C15.1975 10.0913 15.75 8.69953 15.75 7.18276C15.75 3.33082 12.2799 0.207764 8 0.207764ZM8 9.50776C6.57335 9.50776 5.41667 8.46674 5.41667 7.18276C5.41667 5.89878 6.57335 4.85776 8 4.85776C9.42665 4.85776 10.5833 5.89878 10.5833 7.18276C10.5833 8.46674 9.42665 9.50776 8 9.50776Z" fill="#9799A0"/>
</g>
<defs>
<clipPath id="clip0_2002_2404">
<rect x="0.25" y="0.207764" width="15.5" height="18.6" rx="7.75" fill="white"/>
</clipPath>
</defs>
</svg>
