<svg width="17" height="17" viewBox="0 0 17 17" fill="none" xmlns="http://www.w3.org/2000/svg">
<g clip-path="url(#clip0_2002_2445)">
<path d="M8.5 0.515625C6.17378 0.515625 4.28125 2.40816 4.28125 4.73438C4.28125 7.06059 6.17378 8.95312 8.5 8.95312C10.8262 8.95312 12.7188 7.06059 12.7188 4.73438C12.7188 2.40816 10.8262 0.515625 8.5 0.515625ZM13.7489 11.7092C12.5939 10.5365 11.0628 9.89062 9.4375 9.89062H7.5625C5.93725 9.89062 4.40606 10.5365 3.25106 11.7092C2.10172 12.8762 1.46875 14.4167 1.46875 16.0469C1.46875 16.3057 1.67862 16.5156 1.9375 16.5156H15.0625C15.3214 16.5156 15.5312 16.3057 15.5312 16.0469C15.5312 14.4167 14.8983 12.8762 13.7489 11.7092Z" fill="#9799A0"/>
</g>
<defs>
<clipPath id="clip0_2002_2445">
<rect width="16" height="16" fill="white" transform="translate(0.5 0.515625)"/>
</clipPath>
</defs>
</svg>
