<svg width="17" height="17" viewBox="0 0 17 17" fill="none" xmlns="http://www.w3.org/2000/svg">
<g clip-path="url(#clip0_2002_2416)">
<path d="M8.50195 0.72998H8.49806C4.20959 0.72998 0.722229 4.21831 0.722229 8.50776C0.722229 10.2091 1.27056 11.7861 2.20292 13.0665L1.23362 15.956L4.2232 15.0003C5.45306 15.815 6.92015 16.2855 8.50195 16.2855C12.7904 16.2855 16.2778 12.7962 16.2778 8.50776C16.2778 4.21929 12.7904 0.72998 8.50195 0.72998ZM13.0276 11.7132C12.84 12.243 12.0953 12.6825 11.5013 12.8108C11.0949 12.8973 10.564 12.9664 8.77709 12.2255C6.4914 11.2786 5.01945 8.95595 4.90473 8.80526C4.79487 8.65456 3.98112 7.5754 3.98112 6.45929C3.98112 5.34317 4.54792 4.7997 4.7764 4.56637C4.96403 4.37484 5.27417 4.28734 5.57167 4.28734C5.66792 4.28734 5.75445 4.2922 5.83223 4.29609C6.0607 4.30581 6.17542 4.31943 6.32612 4.68012C6.51376 5.1322 6.9707 6.24831 7.02515 6.36304C7.08056 6.47776 7.13598 6.63331 7.0582 6.78401C6.98528 6.93956 6.92112 7.00859 6.8064 7.14081C6.69167 7.27304 6.58278 7.37415 6.46806 7.51609C6.36306 7.63956 6.24445 7.77179 6.37667 8.00026C6.5089 8.22387 6.96584 8.96956 7.63862 9.56845C8.50681 10.3414 9.2107 10.5883 9.46251 10.6933C9.65015 10.7711 9.87376 10.7526 10.0108 10.6068C10.1849 10.4191 10.3997 10.108 10.6185 9.80179C10.774 9.58206 10.9704 9.55484 11.1765 9.63262C11.3865 9.70554 12.4978 10.2548 12.7263 10.3686C12.9547 10.4833 13.1054 10.5378 13.1608 10.634C13.2153 10.7303 13.2153 11.1823 13.0276 11.7132Z" fill="#F9F9F5"/>
</g>
<defs>
<clipPath id="clip0_2002_2416">
<rect width="15.5556" height="15.5556" fill="white" transform="translate(0.722229 0.72998)"/>
</clipPath>
</defs>
</svg>
