<svg width="21" height="21" viewBox="0 0 21 21" fill="none" xmlns="http://www.w3.org/2000/svg">
<path d="M10.5025 0.5H10.4975C4.98375 0.5 0.5 4.985 0.5 10.5C0.5 12.6875 1.205 14.715 2.40375 16.3612L1.1575 20.0763L5.00125 18.8475C6.5825 19.895 8.46875 20.5 10.5025 20.5C16.0162 20.5 20.5 16.0138 20.5 10.5C20.5 4.98625 16.0162 0.5 10.5025 0.5ZM16.3212 14.6213C16.08 15.3025 15.1225 15.8675 14.3587 16.0325C13.8363 16.1437 13.1537 16.2325 10.8562 15.28C7.9175 14.0625 6.025 11.0763 5.8775 10.8825C5.73625 10.6887 4.69 9.30125 4.69 7.86625C4.69 6.43125 5.41875 5.7325 5.7125 5.4325C5.95375 5.18625 6.3525 5.07375 6.735 5.07375C6.85875 5.07375 6.97 5.08 7.07 5.085C7.36375 5.0975 7.51125 5.115 7.705 5.57875C7.94625 6.16 8.53375 7.595 8.60375 7.7425C8.675 7.89 8.74625 8.09 8.64625 8.28375C8.5525 8.48375 8.47 8.5725 8.3225 8.7425C8.175 8.9125 8.035 9.0425 7.8875 9.225C7.7525 9.38375 7.6 9.55375 7.77 9.8475C7.94 10.135 8.5275 11.0937 9.3925 11.8637C10.5087 12.8575 11.4137 13.175 11.7375 13.31C11.9787 13.41 12.2662 13.3863 12.4425 13.1988C12.6663 12.9575 12.9425 12.5575 13.2238 12.1638C13.4237 11.8813 13.6763 11.8462 13.9412 11.9462C14.2113 12.04 15.64 12.7462 15.9338 12.8925C16.2275 13.04 16.4212 13.11 16.4925 13.2338C16.5625 13.3575 16.5625 13.9388 16.3212 14.6213Z" fill="white"/>
</svg>
