<svg width="166" height="90" viewBox="0 0 166 90" fill="none" xmlns="http://www.w3.org/2000/svg">
<path d="M139.335 55.1984C139.398 55.1984 139.398 55.1984 139.398 55.1984C139.779 54.501 140.096 53.8036 140.349 53.1062C140.413 52.9794 140.476 52.8526 140.349 52.6625C139.969 53.55 139.588 54.3108 139.335 55.1984ZM150.239 52.7892V52.8526H150.366C150.683 52.2821 150.937 51.6481 151.19 51.0141V50.9507C151.19 50.8873 151.19 50.8239 151.254 50.7605C151.254 50.6971 151.254 50.6337 151.19 50.5703C150.81 51.3311 150.493 52.0919 150.239 52.7892ZM152.268 40.2997C152.839 38.9049 153.409 37.5736 153.98 36.1788C153.029 36.8762 152.014 37.5102 150.937 38.1442C149.162 39.2219 147.323 40.2997 145.484 41.2507C145.167 41.3775 144.914 41.6311 144.787 41.9481C144.343 43.1527 143.836 44.3572 143.265 45.5618C142.948 46.2592 142.822 47.02 142.948 47.7808C143.139 48.9853 143.075 50.1265 142.758 51.2677V51.3311C142.378 53.4866 141.68 55.5154 140.603 57.4174C140.412 57.7343 140.159 58.0513 139.905 58.3683C139.335 58.9389 138.574 59.2559 137.75 59.3193C137.179 59.3193 136.735 59.0023 136.545 58.4317C136.355 57.7977 136.292 57.1638 136.418 56.4664C136.735 54.7546 137.116 53.0428 137.686 51.3311C138.32 49.4291 139.018 47.5906 139.715 45.752C139.905 45.1814 139.842 44.7376 139.462 44.3572C139.018 43.9134 138.701 43.4062 138.384 42.8991C138.067 42.3285 138.194 42.0749 138.764 42.0115L139.335 41.8847C139.779 41.8213 140.286 41.7579 140.793 41.6311C141.173 41.5677 141.427 41.3775 141.617 40.9971C142.568 38.7147 143.519 36.4324 144.47 34.15C144.533 34.0866 144.533 33.9598 144.597 33.833C144.85 33.2625 145.104 32.6919 145.358 32.1213C145.611 31.6775 145.865 31.1703 146.055 30.7265C146.752 29.2683 147.45 27.8736 148.147 26.4788C149.162 24.45 150.366 22.5481 151.697 20.7095C152.268 19.8853 152.965 19.188 153.663 18.4906C154.487 17.7298 155.311 17.6664 156.199 18.237C156.326 18.3004 156.452 18.3638 156.579 18.4272L156.643 18.4906C157.213 18.8076 157.34 19.1246 156.896 19.5683C155.882 20.5827 154.994 21.7239 154.297 22.9285C153.536 24.1331 152.839 25.401 152.141 26.669L152.078 26.7324C151 28.8246 149.922 30.9801 148.845 33.1357C148.654 33.5161 148.464 33.8964 148.274 34.3402C147.45 35.9252 146.689 37.5736 145.992 39.2219C145.928 39.2853 145.928 39.3487 145.928 39.4121V39.5389C146.055 39.5389 146.182 39.5389 146.245 39.4755C146.309 39.4755 146.435 39.4755 146.499 39.4121C146.562 39.3487 146.562 39.3487 146.626 39.3487C149.352 38.0174 151.951 36.4958 154.424 34.784L154.677 34.5938C154.741 34.5304 154.741 34.4036 154.804 34.2768L154.931 34.0232L155.565 32.5017C155.755 32.0579 156.009 31.6775 156.199 31.2971C156.769 30.0291 157.403 28.7612 158.037 27.5566C158.925 25.7814 159.939 24.0697 161.144 22.4213C161.714 21.7239 162.285 21.0899 162.919 20.5193C163.616 19.8219 164.314 19.7585 165.138 20.2657C165.201 20.3291 165.328 20.3925 165.455 20.4559L165.518 20.5193C166.089 20.7729 166.152 21.0899 165.709 21.4703C164.884 22.3579 164.124 23.3089 163.426 24.3866C162.792 25.4644 162.158 26.6056 161.588 27.6834L161.524 27.7468C160.51 29.5853 159.559 31.4873 158.671 33.3893C158.481 33.7063 158.291 34.0866 158.101 34.467C157.403 35.8618 156.706 37.32 156.135 38.7781C156.072 38.8415 156.072 38.8415 156.072 38.9049V39.0317C156.135 39.0951 156.262 39.0951 156.326 39.0317C156.389 38.9683 156.516 38.9683 156.579 38.9049C156.643 38.9049 156.643 38.9049 156.643 38.8415C159.052 37.637 161.334 36.3056 163.553 34.8474C163.87 34.6572 164.124 34.467 164.441 34.2768H164.504L164.884 34.15C165.075 34.15 165.138 34.2768 165.075 34.467C165.011 34.6572 164.884 34.8474 164.694 34.9742C163.363 36.052 161.968 37.003 160.51 37.8272C158.925 38.7781 157.34 39.7291 155.692 40.5533C155.375 40.6801 155.184 40.8703 155.058 41.1239C154.614 42.2017 154.17 43.2795 153.726 44.3572C153.409 44.9912 153.346 45.6252 153.473 46.3226C153.599 47.337 153.536 48.3513 153.282 49.4291C152.965 51.3311 152.331 53.1062 151.38 54.818C151.19 55.135 151 55.3886 150.746 55.6422C150.239 56.1494 149.605 56.403 148.845 56.4664C148.337 56.4664 147.957 56.2128 147.767 55.6422C147.577 55.0716 147.577 54.5644 147.703 53.9938C147.957 52.4089 148.337 50.8873 148.845 49.4291C149.415 47.7808 149.986 46.1324 150.62 44.484C150.81 44.0402 150.683 43.5964 150.366 43.2794C150.049 42.8991 149.732 42.4553 149.415 42.0115C149.098 41.5677 149.225 41.2507 149.796 41.1873C149.922 41.1873 150.049 41.1873 150.239 41.1239C150.683 41.0605 151.063 40.9971 151.507 40.9337C151.888 40.8703 152.141 40.6167 152.268 40.2997Z" fill="white"/>
<path d="M136.301 39.1586C136.998 38.9684 137.695 38.7148 138.329 38.3978C139.851 37.5736 141.436 36.686 142.894 35.7351C143.528 35.4181 144.035 34.9743 144.606 34.5939C144.796 34.4671 144.986 34.3403 145.24 34.2135C145.367 34.1501 145.557 34.0867 145.684 34.2769C145.81 34.4671 145.747 34.5939 145.62 34.7207C145.367 34.9743 145.113 35.2279 144.859 35.4181C143.148 36.6227 141.436 37.7638 139.661 38.8416C139.534 38.905 139.344 38.9684 139.217 39.0952C138.266 39.6658 137.252 40.0462 136.11 39.9194C135.667 39.856 135.286 39.9828 134.906 40.3632C134.589 40.6802 134.145 40.9338 133.765 41.2507C132.687 42.1383 131.419 42.4553 129.961 42.3285C128.693 42.2017 127.805 41.6311 127.361 40.3632C127.108 39.539 126.981 38.7148 127.044 37.8272C127.298 35.9253 128.186 34.3403 129.263 32.8187C129.961 31.8677 130.785 31.0436 131.736 30.3462C133.067 29.3318 134.526 29.205 136.047 29.7756C136.427 29.9024 136.744 30.0926 136.998 30.3462C137.442 30.6632 137.759 31.0436 137.759 31.6142C137.759 32.3115 137.949 32.9455 137.949 33.5795C138.076 35.3547 137.759 36.9396 136.681 38.3978C136.491 38.588 136.364 38.7782 136.237 39.0318C136.237 39.0318 136.301 39.0952 136.301 39.1586ZM136.11 32.3115C136.11 32.1213 136.11 31.9945 136.11 31.8677C136.047 31.4874 135.984 31.424 135.603 31.6142C135.223 31.8044 134.779 32.0579 134.462 32.3749C133.638 33.2625 132.75 34.0867 132.053 35.0377C131.292 36.2423 130.531 37.4468 130.278 38.8416C130.151 39.3488 129.961 39.9194 130.151 40.49C130.278 41.0606 130.468 41.124 130.912 40.807C131.799 40.2998 132.624 39.6024 133.258 38.7782C133.448 38.5246 133.575 38.271 133.511 37.954C133.384 37.3834 133.384 36.8762 133.511 36.3057C133.701 35.4181 134.082 35.1011 135.033 34.9743C135.35 34.9743 135.54 34.7841 135.667 34.4671C135.92 33.7697 136.11 33.0723 136.11 32.3115Z" fill="white"/>
<path d="M119.09 33.7697C118.33 34.1501 117.759 34.6573 117.125 35.1644C115.794 36.3056 114.462 37.4468 113.321 38.7782C112.56 39.6023 111.673 40.3631 111.039 41.2507C110.531 41.9481 109.834 42.0115 109.137 41.8213C108.63 41.6945 108.439 41.3775 108.439 40.8703C108.503 40.6167 108.566 40.2997 108.63 40.0461C109.327 37.637 110.278 35.418 111.482 33.3259C111.926 32.4383 112.37 31.6141 112.877 30.7899C112.941 30.5997 113.131 30.4095 113.258 30.2193C113.575 29.7756 114.018 29.7122 114.462 30.0925C114.779 30.3461 115.096 30.5363 115.477 30.5363C115.667 30.5997 115.857 30.6631 116.047 30.8533C116.428 31.1703 116.491 31.4239 116.237 31.8677C115.984 32.5017 115.667 33.0723 115.35 33.7063C115.096 34.0867 114.906 34.5305 114.652 34.9742C114.969 34.9742 115.096 34.784 115.286 34.5939C116.618 33.3259 118.076 32.1213 119.598 31.1069C119.851 30.9167 120.168 30.7265 120.485 30.5997C120.865 30.4729 121.246 30.4729 121.626 30.7899C121.88 30.9801 122.26 31.1069 122.577 31.2337C123.465 31.4873 123.782 32.1213 123.528 33.0089C123.338 33.6429 123.021 34.1501 122.704 34.7207C121.943 36.052 121.182 37.32 120.485 38.588C120.168 39.222 119.914 39.7925 119.661 40.4265C119.661 40.6167 119.597 40.7435 119.724 40.8703C119.851 40.9971 120.041 40.8703 120.105 40.8069C120.675 40.4265 121.246 40.0461 121.753 39.6657C123.465 38.3978 125.24 37.1298 126.952 35.735C127.332 35.418 127.713 35.101 128.093 34.784C128.347 34.5939 128.664 34.3403 129.044 34.2135C129.234 34.1501 129.424 34.0233 129.551 34.2135C129.741 34.4037 129.551 34.5939 129.424 34.7207C129.171 34.9742 128.917 35.2278 128.6 35.4814C126.952 36.9396 125.303 38.3344 123.592 39.6657C122.704 40.3631 121.88 41.0605 120.929 41.6311C120.105 42.0749 119.28 42.1383 118.393 42.0115C117.632 41.8847 117.188 41.3141 117.125 40.4265C117.062 39.7291 117.188 39.0318 117.315 38.3344C117.759 36.9396 118.33 35.5448 119.027 34.2135C119.09 34.1501 119.154 34.0233 119.09 33.7697Z" fill="white"/>
<path d="M100.148 37.51C99.6409 37.9538 99.1972 38.3342 98.7534 38.7146C97.6122 39.6021 96.5344 40.5531 95.3932 41.4407C94.4423 42.2015 93.3011 42.2649 92.1599 42.0747C91.4625 41.9479 91.0821 41.5041 90.8285 40.9335C90.4481 39.8557 90.4481 38.778 90.7017 37.7002C91.0187 36.1152 91.6527 34.5936 92.3501 33.1355C92.7939 32.1211 93.3011 31.0433 93.9351 30.0923C94.4423 29.2682 95.1396 29.1414 95.9004 29.712C95.9638 29.7753 96.0272 29.8387 96.154 29.9021C96.9782 30.3459 97.2318 31.0433 96.788 31.8675C96.2174 33.0087 95.6468 34.0865 95.203 35.2276C94.5057 36.8126 93.8083 38.3976 93.4913 40.1093C93.4279 40.2995 93.3011 40.5531 93.4913 40.6799C93.6815 40.8067 93.8717 40.6165 94.0619 40.4897C95.7736 39.4119 97.3586 38.144 98.9436 36.876C99.7043 36.242 100.402 35.6714 101.163 35.1008C101.543 34.7838 101.797 34.4668 101.987 34.0865C102.43 33.1355 102.938 32.1845 103.445 31.1701C103.762 30.5361 104.079 30.4727 104.586 30.9799C104.776 31.2335 105.03 31.3603 105.283 31.4871C105.6 31.5505 105.854 31.7407 106.044 31.9309C106.298 32.1845 106.361 32.4381 106.298 32.8185C106.171 33.3891 105.917 33.8963 105.727 34.4668C105.22 35.5446 104.713 36.6224 104.269 37.7636C104.206 37.827 104.206 37.8904 104.269 38.0172C105.157 37.5734 106.044 37.0662 106.932 36.559C108.39 35.7348 109.912 34.8472 111.433 34.1499C111.75 34.0231 112.13 33.7695 112.384 34.0865C112.511 34.3401 112.13 34.5936 111.877 34.7838C111.053 35.4812 110.038 35.9884 109.087 36.4956C107.312 37.5734 105.537 38.6512 103.698 39.6655C103.318 39.9191 103.064 40.2361 102.811 40.6799C100.972 44.4204 99.1338 48.161 97.2318 51.8381C96.4076 53.5499 95.4566 55.1982 94.4423 56.7198C93.9351 57.4806 93.4279 58.1779 92.7939 58.8119C92.2233 59.4459 91.5259 60.0799 90.7017 60.3969C88.6096 61.0943 87.0246 60.9041 85.5664 59.1289C84.7423 58.1779 83.9815 57.1002 83.3475 56.0224C82.8403 55.008 82.3965 53.9936 82.3965 52.8525C82.3331 51.9015 82.7135 51.1407 83.3475 50.4433C83.9181 49.8093 84.6155 49.3021 85.3128 48.8583C87.1514 47.5904 89.0534 46.5126 91.0187 45.4348C92.7939 44.4204 94.6325 43.4061 96.471 42.4551C97.0416 42.0747 97.6122 41.7577 98.2462 41.4407C98.4998 41.3139 98.69 41.1237 98.8168 40.8701C99.2606 39.8557 99.7043 38.8414 100.148 37.827C100.212 37.7636 100.212 37.7002 100.148 37.51ZM97.739 43.1525C96.9148 43.6597 96.2174 43.9766 95.5834 44.4204C93.8083 45.4348 92.0965 46.5126 90.3213 47.5904C88.7998 48.5414 87.2148 49.4289 85.7566 50.5701C85.2494 51.0139 84.8057 51.4577 84.5521 52.0917C84.0449 53.1061 84.2985 54.057 84.7423 55.0714C85.186 56.1492 85.82 57.1002 86.5174 57.9878C86.9612 58.4949 87.4684 59.0021 87.9756 59.4459C88.2926 59.7629 88.4194 59.7629 88.7998 59.5093C89.3704 59.1923 89.8142 58.7485 90.1945 58.2413C91.3357 56.8466 92.2233 55.2616 93.0475 53.6766C94.6325 50.6335 95.9638 47.4636 97.3586 44.357C97.4854 43.9767 97.6756 43.7231 97.739 43.1525Z" fill="white"/>
<path d="M93.5978 27.2845C92.9781 27.2845 92.4746 27.2845 92.0098 27.2845C91.7387 27.2845 91.5837 27.3574 91.4675 27.5759C91.0802 28.2314 90.6542 28.8505 90.2669 29.5061C89.7246 30.4529 89.1436 31.3998 88.5626 32.3467C88.2915 32.8566 87.9817 33.3664 87.7105 33.8763C87.0908 35.0417 86.4711 36.2071 85.8514 37.3725C85.0767 38.9021 84.3408 40.4681 83.876 42.1069C83.6824 42.7625 83.5275 43.4908 83.4113 44.1828C83.3725 44.3285 83.4113 44.4377 83.45 44.5834C83.6049 44.9476 83.6437 44.984 84.1084 44.9476C84.2634 44.9112 84.3796 44.8747 84.5345 44.8747C84.6894 44.8747 84.8056 44.9476 84.8443 45.0933C84.8831 45.2025 84.8056 45.2753 84.7282 45.3482C84.5732 45.4939 84.3796 45.5667 84.2246 45.5667C83.0627 45.7124 82.3268 45.4574 81.7458 44.4377C81.3972 43.8186 81.4359 43.1995 81.5521 42.5439C81.8232 40.9051 82.3655 39.3391 83.0627 37.8095C83.876 36.0614 84.7669 34.3133 85.6965 32.6381C86.5486 31.0356 87.4394 29.4696 88.369 27.9401C88.4077 27.8308 88.4852 27.758 88.5239 27.6487C88.6401 27.3938 88.6014 27.3574 88.3302 27.3574C87.6718 27.3574 87.0521 27.3209 86.4324 27.4302C86.3936 27.4302 86.3162 27.4302 86.2774 27.4302C84.8056 27.3938 83.3725 27.5394 81.9007 27.503C81.3972 27.503 80.8937 27.4666 80.3902 27.4302C79.4606 27.3209 78.8796 26.7747 78.4923 26.0099C78.4535 25.9734 78.4535 25.9006 78.4535 25.8278C78.4148 25.6821 78.4535 25.5 78.6085 25.4272C78.7634 25.3907 78.8796 25.5 78.9571 25.6093C79.3057 26.0463 79.8092 26.2648 80.3514 26.4469C81.2423 26.7747 82.2106 26.8475 83.1401 26.9203C83.8373 26.9932 84.4958 26.9932 85.1929 26.9932C86.2774 26.9568 87.3232 26.8839 88.4077 26.8111C88.95 26.7747 89.2211 26.5561 89.4922 26.1555C89.8795 25.5364 90.3056 24.9173 90.7316 24.2982C90.8478 24.1525 90.964 24.0433 91.0802 23.8976C91.3126 23.6791 91.5837 23.6427 91.8549 23.8612C92.0873 24.0433 92.3197 24.1889 92.5908 24.2618C92.7844 24.3346 92.9006 24.4803 93.0556 24.626C93.1718 24.7716 93.133 24.9537 93.0168 25.0994C92.8232 25.4272 92.6295 25.7185 92.4746 26.0099C92.3971 26.1191 92.2809 26.2284 92.3197 26.3376C92.3971 26.4833 92.5908 26.4105 92.707 26.4105C93.9464 26.3012 95.2246 26.2284 96.464 26.2648C97.6647 26.3012 98.8267 26.4833 99.9886 26.7018C100.996 26.9203 102.003 27.1388 102.971 27.4666C103.165 27.503 103.32 27.5759 103.475 27.6851C103.862 27.8672 103.939 28.2314 103.978 28.632C103.978 28.7777 103.901 28.8869 103.707 28.9234C103.552 28.9598 103.358 28.9234 103.358 28.7413C103.281 28.4135 103.01 28.3771 102.739 28.3042C101.383 27.9765 99.9886 27.7944 98.5943 27.6487C97.7809 27.5394 96.9675 27.4666 96.1154 27.3938C95.2246 27.3209 94.3337 27.2481 93.5978 27.2845Z" fill="white"/>
<path d="M72.6963 31.9947C72.9499 31.8045 73.1401 31.5509 73.3937 31.3607C74.6617 30.1561 75.9931 29.0783 77.5146 28.3175C78.1486 27.9372 78.7192 27.8738 79.2898 28.4443C79.48 28.5711 79.6702 28.6345 79.8604 28.7613C80.3042 28.9515 80.5578 29.3319 80.6212 29.8391C80.6846 30.3463 80.748 30.8535 80.748 31.3607C80.748 32.3117 81.1284 33.0724 81.8257 33.7064C82.2061 34.0868 82.6499 34.277 83.1571 34.1502C83.6009 34.0868 83.9813 33.96 84.4251 34.0234C84.6153 34.0234 84.8055 34.0234 84.8689 34.277C84.9323 34.4672 84.8055 34.6574 84.6787 34.7842C84.4251 34.9744 84.1715 34.9744 83.9179 35.0378C83.0937 35.1012 82.3329 34.911 81.6355 34.594C80.0506 33.8966 78.9094 32.6921 78.529 30.9803C78.4656 30.7901 78.4656 30.5999 78.4656 30.4731C78.4022 29.9025 78.4022 29.9025 77.895 30.1561C76.3735 30.7901 75.1689 31.8045 73.9643 32.8822C72.0623 34.6574 70.4774 36.7496 69.146 38.9685C68.7022 39.7293 68.3218 40.4901 67.878 41.3143C67.561 41.9483 66.4199 42.1385 65.9127 41.5679C65.6591 41.3777 65.6591 41.1241 65.7225 40.8071C65.7859 40.2365 65.9761 39.6659 66.1663 39.1587C66.8637 36.8764 67.7512 34.6574 68.829 32.5653C69.3362 31.6143 69.78 30.6633 70.2872 29.7123C70.6042 29.1417 70.9846 29.0783 71.4284 29.4587C71.682 29.6489 71.9355 29.7757 72.1891 29.9025C72.8865 30.2829 73.0767 30.6633 72.7597 31.4241C72.6963 31.5509 72.5695 31.7411 72.6963 31.9947Z" fill="white"/>
<path d="M58.395 36.7496C58.0146 37.13 57.5708 37.447 57.1904 37.8274C56.6198 38.398 55.9858 39.0319 55.4152 39.6025C54.9081 40.1097 54.2741 40.6169 53.7035 41.0607C52.4989 41.9483 51.5479 41.8215 50.2166 40.8705C49.8362 40.6169 49.7094 40.2365 49.646 39.7927C49.4558 39.0319 49.5192 38.2712 49.7094 37.5738C49.963 36.3692 50.4702 35.2914 51.1675 34.277C52.0551 32.8823 53.1963 31.7411 54.4643 30.7267C55.2884 30.0927 56.176 29.7123 57.127 29.5855C58.078 29.4587 59.029 29.6489 59.7264 30.4097C59.8532 30.5365 59.9799 30.5999 60.1067 30.6633C60.2969 30.7901 60.4871 31.1071 60.8041 31.0437C61.0577 31.0437 61.1211 30.7267 61.2479 30.5365C61.5649 30.2195 61.7551 30.1561 62.0721 30.4097C62.3257 30.6633 62.5793 30.7901 62.8329 30.9803C63.3401 31.2973 63.4035 31.6143 63.0231 32.0581C62.0721 33.3895 61.3113 34.8476 60.6773 36.3692C60.4237 36.9398 60.2969 37.5104 60.3603 38.1444C60.3603 38.6515 60.4871 38.7783 60.9943 38.5881C61.8185 38.3346 62.5159 37.9542 63.2767 37.5104C64.8617 36.6228 66.4466 35.6084 67.9048 34.4672C68.1584 34.277 68.412 34.1502 68.729 34.0234C68.7924 33.96 68.9192 33.8966 69.046 34.0234C69.1728 34.1502 69.1094 34.277 69.046 34.4038C68.9192 34.6574 68.729 34.911 68.4754 35.1012C66.7002 36.5594 64.7982 37.8908 62.7695 39.0953C62.5793 39.1587 62.3891 39.2855 62.1989 39.3489C60.5505 40.1097 58.8388 39.2221 58.5852 37.3836C58.5852 37.1934 58.6486 37.0032 58.395 36.7496ZM51.9917 40.0463C52.2453 39.9829 52.4355 39.7927 52.6891 39.6659C53.5767 39.0319 54.4643 38.2712 55.225 37.5104C56.3662 36.4326 57.444 35.3548 58.395 34.2136C58.9022 33.6431 59.4094 33.0725 59.9166 32.4385C60.0434 32.3117 60.2335 32.1215 60.1067 31.8679C59.9799 31.6143 59.7264 31.4875 59.4094 31.4875C59.1558 31.4875 58.9022 31.5509 58.712 31.6777C57.6976 32.1215 56.81 32.6921 56.0492 33.4529C55.2884 34.1502 54.5911 34.9744 53.8937 35.862C53.1329 36.8764 52.4989 37.9542 52.1185 39.2221C52.0551 39.4757 51.9283 39.7293 51.9917 40.0463Z" fill="white"/>
<path d="M47.45 18.9344C47.133 19.188 46.9428 19.5684 46.6892 19.8854C45.231 21.6606 43.7728 23.4358 42.3781 25.2109C41.0467 26.9861 39.7787 28.7612 38.4473 30.473C36.6722 32.7554 34.9604 35.1645 33.1853 37.4469C32.0441 39.0318 30.8395 40.5534 29.6349 42.075C29.0643 42.7723 28.367 43.4063 27.733 44.0403C26.5284 45.1181 23.8023 44.8645 22.9781 43.0259C22.3441 41.758 22.0271 40.4266 21.7735 39.0318C21.4565 36.8129 21.4565 34.5305 21.6467 32.2482C22.0271 27.8103 23.0415 23.5625 24.3094 19.2514C24.4362 18.7442 24.563 18.1737 24.7532 17.6665C24.7532 17.5397 24.8166 17.4129 24.6898 17.3495C24.563 17.3495 24.563 17.4763 24.4996 17.5397C23.929 18.6175 23.2951 19.7586 22.7245 20.8364C21.6467 22.8018 20.5689 24.7671 19.5545 26.7325C18.667 28.3174 17.8428 29.9024 16.9552 31.424C14.6094 35.7351 12.3905 40.1096 10.1715 44.4841C8.96696 46.8299 7.76239 49.1756 6.49442 51.458C5.35324 53.6769 4.14867 55.8325 2.94409 57.988C2.88069 58.0514 2.81729 58.1782 2.7539 58.2416C2.3735 59.1292 1.61272 59.256 0.788536 59.1926C0.217948 59.1926 -0.0990448 58.8122 0.0277525 58.1782C0.217949 57.4808 0.471543 56.8469 0.725138 56.2129C1.67612 53.7403 2.81729 51.3312 3.83167 48.922C5.22644 45.8155 6.74801 42.7089 8.26958 39.6658C8.58657 39.0318 8.90357 38.3978 9.15716 37.7005C9.47415 36.9397 9.60095 36.0521 9.66435 35.1645C9.72775 33.7697 9.66435 32.375 9.34736 30.9802C8.96696 29.3952 8.20618 27.9371 7.2552 26.6057C6.36762 25.4011 5.35324 24.2599 4.59246 22.992C3.95847 21.8508 3.38788 20.6462 3.19769 19.3148C3.00749 17.9835 3.32448 16.7789 3.83167 15.5743C4.33886 14.3697 5.03625 13.3554 5.86043 12.4044C6.87481 11.1364 8.01598 9.93184 9.22056 8.85406C10.8689 7.39589 12.6441 6.12792 14.4826 4.92334C16.131 3.90896 17.9062 2.89458 19.6813 2.0704C21.5833 1.18282 23.5487 0.422034 25.6408 0.105041C26.2114 -0.021755 26.8454 -0.0217545 27.416 0.0416433C27.6062 0.0416433 27.7964 0.0416425 27.9232 0.168438C29.0009 0.739026 30.2055 1.05602 31.0931 1.9436C31.6637 2.51419 31.9807 3.21158 32.1075 4.03576C32.3611 5.05014 32.2343 6.06452 32.0441 7.0789C31.6637 9.48804 30.9663 11.7704 30.2689 14.1161C29.3813 17.1593 28.4938 20.2024 27.6696 23.2456C27.0356 25.5279 26.465 27.7469 26.0212 30.0292C25.6408 31.9312 25.3872 33.8331 25.197 35.7351C25.0068 37.3835 25.0702 39.0318 25.0702 40.7436C25.0702 41.5044 25.197 42.2652 25.514 43.0259C25.7042 43.6599 25.8944 43.6599 26.4016 43.2795C27.416 42.5821 28.2402 41.6946 29.0643 40.7436C31.1565 38.3978 33.0585 35.9253 34.9604 33.4527C37.4964 30.0926 40.0323 26.6691 42.5683 23.3724C44.9774 20.2024 47.3866 16.9691 49.6689 13.7358C51.3173 11.4534 52.8388 9.10765 54.3604 6.7619C55.3748 5.17693 56.3258 3.59197 57.4035 2.0704C57.5937 1.69001 57.9107 1.62661 58.2911 1.8802C58.6081 2.1972 59.0519 2.38739 59.4957 2.51419C60.2565 2.70439 60.5735 3.27497 60.3199 4.03576C60.1297 4.60635 59.9395 5.17693 59.6225 5.74752C58.1009 8.60046 56.516 11.4534 54.8676 14.2429C53.663 16.2717 52.5218 18.3005 51.3807 20.3926C50.6199 21.724 49.8591 23.0554 49.1617 24.4501C48.2741 26.2253 47.3232 28.0005 46.499 29.7756C45.9918 30.9802 45.4212 32.1214 44.914 33.3259C43.8996 35.7985 43.012 38.3344 42.3147 40.8704C41.6173 43.4697 41.1101 46.1325 40.6663 48.7952C40.4127 50.3802 40.2859 51.9652 40.1591 53.6135C40.0323 55.3887 40.0323 57.1638 40.0957 59.0024C40.0957 60.6508 40.2225 62.2991 40.6663 63.9475C40.7931 64.2645 40.9199 64.6449 41.0467 64.9619C41.1735 65.3423 41.3003 65.3423 41.6173 65.1521C41.9343 64.9619 42.1879 64.7717 42.4415 64.5815C42.8218 64.3913 42.9486 64.5181 42.9486 64.8351C43.012 65.5325 42.695 66.0397 42.1879 66.3567C41.6173 66.6102 40.9833 66.8638 40.2859 66.8004C39.7153 66.8004 39.2715 66.5468 38.9545 66.1031C38.5107 65.4691 38.1937 64.8351 37.9402 64.0743C37.5598 62.6795 37.3062 61.2848 37.1794 59.8266C36.7356 56.6567 36.799 53.4867 36.9258 50.3168C37.116 46.1959 37.75 42.2018 38.9545 38.271C39.9055 35.2279 41.0467 32.3116 42.3147 29.3952C43.3924 26.8593 44.6604 24.3867 45.9284 21.9142C46.3722 21.0266 46.8794 20.2024 47.3866 19.3782C47.45 19.2514 47.5767 19.1246 47.45 18.9344ZM11.2493 33.2625C11.4395 33.1357 11.5029 33.0089 11.5663 32.9456C13.0245 29.9024 14.6728 26.9227 16.2578 23.9429C16.9552 22.6116 17.5892 21.2802 18.2866 19.9488C18.667 19.3148 18.984 18.6809 19.3643 18.0469C20.4421 16.0815 21.5833 14.1161 22.6611 12.0874C23.6755 10.2488 24.6264 8.41027 25.7042 6.6351C26.4016 5.49393 27.0356 4.35275 27.6696 3.21158C27.8598 2.95798 27.9866 2.57759 28.367 2.45079C28.4938 2.38739 28.6205 2.45079 28.6205 2.2606C28.5571 2.0704 28.4938 1.9436 28.3036 1.9436C28.1768 1.9436 28.05 1.9436 27.8598 1.9436C26.2114 2.1972 24.563 2.76779 22.9781 3.40177C21.6467 3.90896 20.3153 4.60635 19.0474 5.30373C17.716 6.00112 16.448 6.7619 15.2434 7.58608C13.0879 9.04425 11.0591 10.6926 9.28396 12.5312C8.33298 13.5456 7.382 14.6233 6.68461 15.7645C5.41664 17.9835 5.03625 20.2024 6.30422 22.5482C6.93821 23.6893 7.63559 24.7037 8.39638 25.7815C9.66435 27.4933 10.6787 29.3318 11.0591 31.4874C11.1225 32.058 11.1859 32.6286 11.2493 33.2625Z" fill="white"/>
<path d="M147.528 83.0727C146.129 83.0727 144.945 82.7205 143.978 82.0161C143.011 81.3022 142.278 80.3395 141.78 79.1279C141.282 77.9069 141.033 76.5403 141.033 75.0281C141.033 73.4878 141.282 72.1165 141.78 70.9143C142.287 69.7026 143.029 68.7493 144.006 68.0543C144.983 67.3592 146.185 67.0117 147.613 67.0117C149.003 67.0117 150.196 67.3639 151.191 68.0684C152.187 68.7728 152.948 69.7308 153.474 70.9424C154.009 72.1541 154.277 73.516 154.277 75.0281C154.277 76.5497 154.009 77.9163 153.474 79.1279C152.938 80.3395 152.168 81.3022 151.163 82.0161C150.158 82.7205 148.947 83.0727 147.528 83.0727ZM140.681 89.4126V67.4344H142.541V78.8884H142.766V89.4126H140.681ZM147.317 81.1426C148.378 81.1426 149.261 80.8749 149.966 80.3395C150.67 79.8042 151.196 79.0762 151.544 78.1558C151.9 77.2259 152.079 76.1834 152.079 75.0281C152.079 73.8823 151.905 72.8491 151.558 71.9286C151.21 71.0082 150.679 70.2803 149.966 69.7449C149.261 69.2095 148.364 68.9419 147.275 68.9419C146.213 68.9419 145.331 69.2001 144.626 69.7167C143.931 70.2333 143.41 70.9518 143.062 71.8723C142.715 72.7833 142.541 73.8353 142.541 75.0281C142.541 76.2022 142.715 77.2541 143.062 78.184C143.41 79.1044 143.936 79.8276 144.64 80.3536C145.345 80.8796 146.237 81.1426 147.317 81.1426Z" fill="white"/>
<path d="M130.374 83.0727C128.862 83.0727 127.571 82.7299 126.5 82.0442C125.429 81.3586 124.607 80.41 124.034 79.1984C123.462 77.9867 123.175 76.5967 123.175 75.0281C123.175 73.4314 123.466 72.032 124.049 70.8297C124.631 69.6275 125.457 68.693 126.528 68.0261C127.608 67.3498 128.89 67.0117 130.374 67.0117C131.896 67.0117 133.192 67.3545 134.263 68.0402C135.343 68.7164 136.165 69.6604 136.728 70.872C137.301 72.0742 137.588 73.4596 137.588 75.0281C137.588 76.6248 137.301 78.029 136.728 79.2406C136.155 80.4428 135.329 81.3821 134.249 82.0583C133.169 82.7346 131.877 83.0727 130.374 83.0727ZM130.374 81.0862C132.065 81.0862 133.324 80.5274 134.15 79.4097C134.977 78.2826 135.39 76.8221 135.39 75.0281C135.39 73.1872 134.972 71.722 134.136 70.6325C133.309 69.543 132.056 68.9982 130.374 68.9982C129.238 68.9982 128.299 69.2565 127.557 69.7731C126.824 70.2803 126.275 70.9894 125.908 71.9005C125.551 72.8021 125.373 73.8447 125.373 75.0281C125.373 76.8596 125.796 78.3296 126.641 79.4379C127.486 80.5368 128.731 81.0862 130.374 81.0862Z" fill="white"/>
<path d="M118.279 82.6499V74.8871C118.279 74.0417 118.199 73.2669 118.04 72.5624C117.88 71.8486 117.622 71.2287 117.265 70.7028C116.917 70.1674 116.462 69.7541 115.898 69.463C115.344 69.1718 114.668 69.0262 113.869 69.0262C113.137 69.0262 112.489 69.153 111.925 69.4066C111.371 69.6602 110.901 70.0265 110.516 70.5055C110.141 70.9751 109.854 71.5481 109.657 72.2243C109.46 72.9006 109.361 73.6707 109.361 74.5348L107.896 74.2108C107.896 72.6517 108.168 71.3414 108.713 70.2801C109.258 69.2188 110.009 68.4157 110.967 67.8709C111.925 67.3262 113.024 67.0538 114.264 67.0538C115.175 67.0538 115.969 67.1947 116.645 67.4765C117.33 67.7582 117.908 68.1386 118.378 68.6176C118.857 69.0967 119.242 69.6461 119.533 70.266C119.824 70.8765 120.035 71.5293 120.167 72.2243C120.298 72.91 120.364 73.5956 120.364 74.2813V82.6499H118.279ZM107.276 82.6499V62.3623H109.15V73.8163H109.361V82.6499H107.276Z" fill="white"/>
<path d="M96.9713 83.0729C95.5531 83.0729 94.2757 82.8381 93.1392 82.3685C92.0121 81.8895 91.0776 81.2133 90.3356 80.3398C89.603 79.4663 89.124 78.4284 88.8986 77.2262L91.0118 76.874C91.35 78.1889 92.0638 79.2221 93.1533 79.9735C94.2428 80.7155 95.5437 81.0865 97.0559 81.0865C98.0514 81.0865 98.9437 80.9315 99.7327 80.6215C100.522 80.3022 101.142 79.8514 101.592 79.269C102.043 78.6867 102.269 77.9964 102.269 77.198C102.269 76.672 102.175 76.2259 101.987 75.8596C101.799 75.4839 101.55 75.1739 101.24 74.9297C100.93 74.6855 100.592 74.4836 100.226 74.3239C99.8595 74.1549 99.5026 74.0187 99.1551 73.9154L94.0127 72.3797C93.3928 72.2012 92.8199 71.9758 92.2939 71.7035C91.7679 71.4217 91.3077 71.0882 90.9132 70.7032C90.5281 70.3087 90.2276 69.8485 90.0116 69.3225C89.7955 68.7965 89.6875 68.1954 89.6875 67.5191C89.6875 66.3733 89.9881 65.3824 90.5892 64.5464C91.1903 63.7105 92.0121 63.0671 93.0547 62.6163C94.0972 62.1655 95.2854 61.9448 96.6191 61.9541C97.9716 61.9541 99.1785 62.1937 100.24 62.6727C101.311 63.1517 102.193 63.8373 102.889 64.7296C103.584 65.6125 104.044 66.6597 104.269 67.8714L102.1 68.2658C101.959 67.383 101.635 66.6175 101.127 65.9694C100.62 65.3213 99.9722 64.8235 99.1832 64.476C98.4037 64.1191 97.5443 63.9359 96.605 63.9265C95.694 63.9265 94.8815 64.0815 94.1677 64.3915C93.4633 64.692 92.9044 65.1053 92.4912 65.6313C92.0779 66.1572 91.8713 66.7584 91.8713 67.4346C91.8713 68.1203 92.0591 68.6697 92.4348 69.083C92.8199 69.4962 93.2895 69.8203 93.8437 70.0551C94.4072 70.2899 94.952 70.4824 95.4779 70.6327L99.4509 71.8021C99.8642 71.9148 100.348 72.0791 100.902 72.2952C101.466 72.5018 102.01 72.8024 102.536 73.1968C103.072 73.5819 103.513 74.0891 103.861 74.7184C104.208 75.3477 104.382 76.1461 104.382 77.1135C104.382 78.0527 104.194 78.8933 103.818 79.6353C103.452 80.3773 102.931 81.0019 102.255 81.5091C101.588 82.0163 100.803 82.4014 99.9017 82.6644C99.0095 82.9368 98.0327 83.0729 96.9713 83.0729Z" fill="white"/>
</svg>
