<svg width="91" height="50" viewBox="0 0 91 50" fill="none" xmlns="http://www.w3.org/2000/svg">
<path d="M76.3823 30.2594C76.4171 30.2594 76.4171 30.2594 76.4171 30.2594C76.6256 29.8771 76.7994 29.4948 76.9384 29.1125C76.9731 29.0429 77.0079 28.9734 76.9384 28.8692C76.7299 29.3557 76.5213 29.7728 76.3823 30.2594ZM82.3601 28.9387V28.9734H82.4296C82.6034 28.6606 82.7424 28.3131 82.8814 27.9655V27.9308C82.8814 27.896 82.8814 27.8613 82.9162 27.8265C82.9162 27.7918 82.9162 27.757 82.8814 27.7223C82.6729 28.1393 82.4991 28.5564 82.3601 28.9387ZM83.4723 22.092C83.7851 21.3274 84.0979 20.5976 84.4106 19.833C83.8893 20.2153 83.3333 20.5628 82.7424 20.9103C81.7693 21.5012 80.7614 22.092 79.7535 22.6133C79.5797 22.6828 79.4407 22.8219 79.3712 22.9956C79.1279 23.656 78.8499 24.3163 78.5371 24.9766C78.3633 25.3589 78.2938 25.776 78.3633 26.1931C78.4676 26.8534 78.4328 27.479 78.2591 28.1046V28.1393C78.0505 29.321 77.6682 30.4331 77.0774 31.4758C76.9731 31.6495 76.8341 31.8233 76.6951 31.9971C76.3823 32.3099 75.9653 32.4837 75.5134 32.5184C75.2007 32.5184 74.9574 32.3446 74.8531 32.0319C74.7488 31.6843 74.7141 31.3368 74.7836 30.9545C74.9574 30.0161 75.1659 29.0777 75.4787 28.1393C75.8262 27.0967 76.2085 26.0888 76.5908 25.0809C76.6951 24.7681 76.6604 24.5248 76.4518 24.3163C76.2085 24.073 76.0348 23.795 75.861 23.517C75.6872 23.2042 75.7567 23.0651 76.0695 23.0304L76.3823 22.9609C76.6256 22.9261 76.9036 22.8914 77.1817 22.8219C77.3902 22.7871 77.5292 22.6828 77.6335 22.4743C78.1548 21.2231 78.6761 19.972 79.1974 18.7208C79.2322 18.686 79.2322 18.6165 79.267 18.547C79.406 18.2342 79.545 17.9214 79.684 17.6087C79.823 17.3654 79.962 17.0873 80.0663 16.844C80.4486 16.0447 80.8309 15.2801 81.2132 14.5155C81.7693 13.4033 82.4296 12.3607 83.1595 11.3528C83.4723 10.901 83.8546 10.5187 84.2369 10.1364C84.6887 9.71934 85.1405 9.68459 85.6271 9.99738C85.6966 10.0321 85.7661 10.0669 85.8356 10.1016L85.8703 10.1364C86.1831 10.3102 86.2526 10.4839 86.0094 10.7272C85.4533 11.2833 84.9667 11.9089 84.5844 12.5692C84.1674 13.2296 83.7851 13.9247 83.4028 14.6198L83.368 14.6545C82.7772 15.8014 82.1863 16.9831 81.5955 18.1647C81.4913 18.3733 81.387 18.5818 81.2827 18.8251C80.8309 19.6939 80.4139 20.5976 80.0316 21.5012C79.9968 21.5359 79.9968 21.5707 79.9968 21.6054V21.675C80.0663 21.675 80.1358 21.675 80.1706 21.6402C80.2053 21.6402 80.2748 21.6402 80.3096 21.6054C80.3443 21.5707 80.3443 21.5707 80.3791 21.5707C81.8736 20.8408 83.2985 20.0067 84.6539 19.0684L84.793 18.9641C84.8277 18.9293 84.8277 18.8598 84.8625 18.7903L84.932 18.6513L85.2795 17.8172C85.3838 17.5739 85.5228 17.3654 85.6271 17.1568C85.9399 16.4617 86.2874 15.7667 86.6349 15.1063C87.1215 14.1332 87.6776 13.1948 88.3379 12.2912C88.6507 11.9089 88.9635 11.5613 89.3111 11.2485C89.6934 10.8662 90.0757 10.8315 90.5275 11.1095C90.5622 11.1443 90.6317 11.179 90.7012 11.2138L90.736 11.2485C91.0488 11.3876 91.0836 11.5613 90.8403 11.7699C90.3885 12.2564 89.9714 12.7778 89.5891 13.3686C89.2415 13.9594 88.894 14.585 88.5812 15.1758L88.5465 15.2106C87.9904 16.2185 87.4691 17.2611 86.9825 18.3037C86.8782 18.4775 86.774 18.686 86.6697 18.8946C86.2874 19.6592 85.9051 20.4585 85.5923 21.2579C85.5576 21.2927 85.5576 21.2927 85.5576 21.3274V21.3969C85.5923 21.4317 85.6618 21.4317 85.6966 21.3969C85.7313 21.3622 85.8008 21.3622 85.8356 21.3274C85.8703 21.3274 85.8703 21.3274 85.8703 21.2927C87.191 20.6323 88.4422 19.9025 89.6586 19.1031C89.8324 18.9988 89.9714 18.8946 90.1452 18.7903H90.1799L90.3885 18.7208C90.4927 18.7208 90.5275 18.7903 90.4927 18.8946C90.458 18.9988 90.3885 19.1031 90.2842 19.1726C89.5543 19.7634 88.7897 20.2848 87.9904 20.7366C87.1215 21.2579 86.2526 21.7792 85.349 22.231C85.1753 22.3005 85.071 22.4048 85.0015 22.5438C84.7582 23.1346 84.5149 23.7255 84.2716 24.3163C84.0979 24.6639 84.0631 25.0114 84.1326 25.3937C84.2021 25.9498 84.1674 26.5059 84.0283 27.0967C83.8546 28.1393 83.507 29.1125 82.9857 30.0508C82.8814 30.2246 82.7772 30.3636 82.6382 30.5026C82.3601 30.7807 82.0126 30.9197 81.5955 30.9545C81.3175 30.9545 81.109 30.8154 81.0047 30.5026C80.9004 30.1899 80.9004 29.9118 80.9699 29.599C81.1089 28.7302 81.3175 27.896 81.5955 27.0967C81.9083 26.1931 82.2211 25.2894 82.5687 24.3858C82.6729 24.1425 82.6034 23.8993 82.4296 23.7255C82.2559 23.517 82.0821 23.2737 81.9083 23.0304C81.7345 22.7871 81.804 22.6133 82.1168 22.5786C82.1863 22.5786 82.2559 22.5786 82.3601 22.5438C82.6034 22.5091 82.8119 22.4743 83.0552 22.4396C83.2637 22.4048 83.4028 22.2658 83.4723 22.092Z" fill="#292E35"/>
<path d="M74.719 21.4665C75.1013 21.3622 75.4836 21.2232 75.8312 21.0494C76.6653 20.5976 77.5342 20.1111 78.3335 19.5897C78.6811 19.416 78.9591 19.1727 79.2719 18.9641C79.3762 18.8946 79.4804 18.8251 79.6194 18.7556C79.6889 18.7209 79.7932 18.6861 79.8627 18.7904C79.9322 18.8946 79.8975 18.9641 79.828 19.0337C79.689 19.1727 79.5499 19.3117 79.4109 19.416C78.4725 20.0763 77.5342 20.7019 76.561 21.2927C76.4915 21.3275 76.3873 21.3622 76.3177 21.4317C75.7964 21.7445 75.2404 21.9531 74.6148 21.8835C74.3715 21.8488 74.1629 21.9183 73.9544 22.1268C73.7806 22.3006 73.5374 22.4396 73.3288 22.6134C72.738 23.1 72.0429 23.2737 71.2436 23.2042C70.5485 23.1347 70.0619 22.8219 69.8186 22.1268C69.6796 21.675 69.6101 21.2232 69.6448 20.7366C69.7839 19.694 70.2704 18.8251 70.8613 17.991C71.2436 17.4697 71.6954 17.0179 72.2167 16.6356C72.9465 16.0795 73.7459 16.01 74.58 16.3228C74.7885 16.3923 74.9623 16.4966 75.1013 16.6356C75.3446 16.8094 75.5184 17.0179 75.5184 17.3307C75.5184 17.713 75.6227 18.0605 75.6227 18.4081C75.6922 19.3812 75.5184 20.2501 74.9276 21.0494C74.8233 21.1537 74.7538 21.258 74.6843 21.397C74.6843 21.397 74.719 21.4317 74.719 21.4665ZM74.6148 17.713C74.6148 17.6087 74.6148 17.5392 74.6148 17.4697C74.58 17.2612 74.5453 17.2264 74.3367 17.3307C74.1282 17.4349 73.8849 17.574 73.7111 17.7477C73.2593 18.2343 72.7728 18.6861 72.3905 19.2074C71.9734 19.8678 71.5563 20.5281 71.4173 21.2927C71.3478 21.5707 71.2436 21.8835 71.3478 22.1963C71.4173 22.5091 71.5216 22.5439 71.7649 22.3701C72.2514 22.0921 72.7033 21.7098 73.0508 21.258C73.1551 21.1189 73.2246 20.9799 73.1898 20.8061C73.1203 20.4934 73.1203 20.2153 73.1898 19.9025C73.2941 19.416 73.5026 19.2422 74.0239 19.1727C74.1977 19.1727 74.302 19.0684 74.3715 18.8946C74.5105 18.5123 74.6148 18.13 74.6148 17.713Z" fill="#292E35"/>
<path d="M65.2845 18.5123C64.8674 18.7208 64.5546 18.9989 64.2071 19.2769C63.4772 19.9025 62.7474 20.5281 62.1218 21.2579C61.7047 21.7097 61.2182 22.1268 60.8706 22.6134C60.5926 22.9957 60.2103 23.0304 59.828 22.9262C59.5499 22.8567 59.4457 22.6829 59.4457 22.4048C59.4804 22.2658 59.5152 22.092 59.5499 21.953C59.9322 20.6324 60.4536 19.4159 61.1139 18.269C61.3572 17.7825 61.6005 17.3307 61.8785 16.8788C61.9133 16.7746 62.0175 16.6703 62.087 16.5661C62.2608 16.3228 62.5041 16.288 62.7474 16.4965C62.9211 16.6356 63.0949 16.7398 63.3034 16.7398C63.4077 16.7746 63.512 16.8093 63.6162 16.9136C63.8248 17.0874 63.8595 17.2264 63.7205 17.4697C63.5815 17.8172 63.4077 18.13 63.2339 18.4776C63.0949 18.6861 62.9907 18.9294 62.8516 19.1727C63.0254 19.1727 63.0949 19.0684 63.1992 18.9641C63.929 18.269 64.7284 17.6087 65.5625 17.0526C65.7015 16.9484 65.8753 16.8441 66.0491 16.7746C66.2576 16.7051 66.4661 16.7051 66.6747 16.8788C66.8137 16.9831 67.0222 17.0526 67.196 17.1221C67.6825 17.2611 67.8563 17.6087 67.7173 18.0953C67.613 18.4428 67.4393 18.7208 67.2655 19.0336C66.8484 19.7635 66.4314 20.4586 66.0491 21.1537C65.8753 21.5012 65.7363 21.814 65.5973 22.1616C65.5973 22.2658 65.5625 22.3353 65.632 22.4048C65.7015 22.4743 65.8058 22.4048 65.8405 22.3701C66.1533 22.1616 66.4661 21.953 66.7442 21.7445C67.6825 21.0494 68.6557 20.3543 69.594 19.5897C69.8026 19.4159 70.0111 19.2422 70.2196 19.0684C70.3587 18.9641 70.5324 18.8251 70.741 18.7556C70.8452 18.7208 70.9495 18.6513 71.019 18.7556C71.1233 18.8599 71.019 18.9641 70.9495 19.0336C70.8105 19.1727 70.6714 19.3117 70.4977 19.4507C69.594 20.25 68.6904 21.0147 67.752 21.7445C67.2655 22.1268 66.8137 22.5091 66.2924 22.8219C65.8405 23.0652 65.3887 23.0999 64.9022 23.0304C64.4851 22.9609 64.2418 22.6481 64.2071 22.1616C64.1723 21.7793 64.2418 21.397 64.3113 21.0147C64.5546 20.25 64.8674 19.4854 65.2497 18.7556C65.2845 18.7208 65.3192 18.6513 65.2845 18.5123Z" fill="#292E35"/>
<path d="M54.9005 20.5627C54.6224 20.806 54.3792 21.0145 54.1359 21.2231C53.5103 21.7096 52.9195 22.2309 52.2939 22.7175C51.7726 23.1346 51.147 23.1693 50.5214 23.0651C50.1391 22.9955 49.9306 22.7523 49.7915 22.4395C49.583 21.8486 49.583 21.2578 49.722 20.667C49.8958 19.7981 50.2434 18.964 50.6257 18.1646C50.8689 17.6086 51.147 17.0177 51.4945 16.4964C51.7726 16.0446 52.1549 15.9751 52.5719 16.2879C52.6067 16.3226 52.6414 16.3574 52.7109 16.3922C53.1627 16.6354 53.3018 17.0177 53.0585 17.4695C52.7457 18.0951 52.4329 18.686 52.1896 19.3115C51.8073 20.1804 51.425 21.0493 51.2512 21.9877C51.2165 22.0919 51.147 22.2309 51.2512 22.3004C51.3555 22.37 51.4598 22.2657 51.564 22.1962C52.5024 21.6054 53.3713 20.9103 54.2401 20.2152C54.6572 19.8676 55.0395 19.5548 55.4566 19.242C55.6651 19.0683 55.8041 18.8945 55.9084 18.686C56.1516 18.1646 56.4297 17.6433 56.7077 17.0872C56.8815 16.7397 57.0553 16.7049 57.3333 16.983C57.4376 17.122 57.5766 17.1915 57.7156 17.261C57.8894 17.2958 58.0284 17.4 58.1327 17.5043C58.2717 17.6433 58.3064 17.7823 58.2717 17.9909C58.2022 18.3037 58.0632 18.5817 57.9589 18.8945C57.6809 19.4853 57.4028 20.0761 57.1595 20.7017C57.1248 20.7365 57.1248 20.7712 57.1595 20.8408C57.6461 20.5975 58.1327 20.3194 58.6192 20.0414C59.4186 19.5896 60.2527 19.103 61.0868 18.7207C61.2606 18.6512 61.4691 18.5122 61.6081 18.686C61.6776 18.825 61.4691 18.964 61.3301 19.0683C60.8783 19.4506 60.3222 19.7286 59.8009 20.0066C58.8278 20.5975 57.8546 21.1883 56.8467 21.7444C56.6382 21.8834 56.4992 22.0572 56.3602 22.3004C55.3523 24.351 54.3444 26.4015 53.3018 28.4173C52.85 29.3557 52.3286 30.2593 51.7726 31.0934C51.4945 31.5104 51.2165 31.8927 50.8689 32.2403C50.5561 32.5878 50.1738 32.9354 49.722 33.1092C48.5751 33.4915 47.7063 33.3872 46.9069 32.4141C46.4551 31.8927 46.038 31.3019 45.6905 30.7111C45.4125 30.155 45.1692 29.5989 45.1692 28.9734C45.1344 28.452 45.3429 28.035 45.6905 27.6527C46.0033 27.3051 46.3856 27.0271 46.7679 26.7838C47.7758 26.0887 48.8184 25.4979 49.8958 24.9071C50.8689 24.351 51.8768 23.7949 52.8847 23.2736C53.1975 23.0651 53.5103 22.8913 53.8578 22.7175C53.9969 22.648 54.1011 22.5437 54.1706 22.4047C54.4139 21.8486 54.6572 21.2926 54.9005 20.7365C54.9352 20.7017 54.9352 20.667 54.9005 20.5627ZM53.5798 23.6559C53.128 23.9339 52.7457 24.1077 52.3981 24.351C51.425 24.9071 50.4866 25.4979 49.5135 26.0887C48.6794 26.61 47.8105 27.0966 47.0112 27.7222C46.7331 27.9655 46.4898 28.2087 46.3508 28.5563C46.0728 29.1124 46.2118 29.6337 46.4551 30.1898C46.6984 30.7806 47.0459 31.3019 47.4282 31.7885C47.6715 32.0665 47.9495 32.3446 48.2276 32.5878C48.4014 32.7616 48.4709 32.7616 48.6794 32.6226C48.9922 32.4488 49.2355 32.2055 49.444 31.9275C50.0696 31.1629 50.5561 30.294 51.008 29.4252C51.8768 27.7569 52.6067 26.0192 53.3713 24.3162C53.4408 24.1077 53.545 23.9687 53.5798 23.6559Z" fill="#292E35"/>
<path d="M51.3096 14.9571C50.9699 14.9571 50.6939 14.9571 50.4391 14.9571C50.2905 14.9571 50.2055 14.9971 50.1418 15.1169C49.9295 15.4762 49.696 15.8156 49.4836 16.175C49.1864 16.694 48.8679 17.2131 48.5494 17.7322C48.4008 18.0117 48.2309 18.2912 48.0823 18.5707C47.7425 19.2096 47.4028 19.8484 47.0631 20.4873C46.6384 21.3258 46.235 22.1843 45.9802 23.0827C45.8741 23.442 45.7891 23.8413 45.7254 24.2206C45.7042 24.3005 45.7254 24.3604 45.7467 24.4403C45.8316 24.6399 45.8528 24.6599 46.1076 24.6399C46.1926 24.6199 46.2563 24.6 46.3412 24.6C46.4261 24.6 46.4898 24.6399 46.5111 24.7198C46.5323 24.7796 46.4898 24.8196 46.4474 24.8595C46.3624 24.9394 46.2563 24.9793 46.1713 24.9793C45.5343 25.0592 45.1309 24.9194 44.8124 24.3604C44.6213 24.021 44.6426 23.6816 44.7063 23.3222C44.8549 22.4238 45.1522 21.5654 45.5343 20.7269C45.9802 19.7686 46.4686 18.8103 46.9782 17.8919C47.4453 17.0135 47.9336 16.155 48.4432 15.3165C48.4645 15.2566 48.5069 15.2167 48.5282 15.1568C48.5919 15.017 48.5706 14.9971 48.422 14.9971C48.061 14.9971 47.7213 14.9771 47.3816 15.037C47.3604 15.037 47.3179 15.037 47.2967 15.037C46.4898 15.017 45.7042 15.0969 44.8974 15.0769C44.6213 15.0769 44.3453 15.057 44.0693 15.037C43.5597 14.9771 43.2412 14.6776 43.0289 14.2584C43.0077 14.2384 43.0077 14.1985 43.0077 14.1586C42.9864 14.0787 43.0077 13.9789 43.0926 13.939C43.1775 13.919 43.2412 13.9789 43.2837 14.0388C43.4748 14.2783 43.7508 14.3981 44.0481 14.498C44.5364 14.6776 45.0672 14.7176 45.5768 14.7575C45.959 14.7974 46.32 14.7974 46.7021 14.7974C47.2967 14.7775 47.8699 14.7375 48.4645 14.6976C48.7617 14.6776 48.9103 14.5578 49.059 14.3382C49.2713 13.9988 49.5049 13.6594 49.7384 13.3201C49.8021 13.2402 49.8658 13.1803 49.9295 13.1004C50.0569 12.9807 50.2055 12.9607 50.3542 13.0805C50.4816 13.1803 50.609 13.2602 50.7576 13.3001C50.8638 13.34 50.9274 13.4199 51.0124 13.4997C51.0761 13.5796 51.0548 13.6794 50.9911 13.7593C50.885 13.9389 50.7788 14.0987 50.6939 14.2584C50.6514 14.3183 50.5877 14.3782 50.609 14.4381C50.6514 14.5179 50.7576 14.478 50.8213 14.478C51.5007 14.4181 52.2014 14.3782 52.8809 14.3981C53.5391 14.4181 54.1761 14.5179 54.813 14.6377C55.3651 14.7575 55.9171 14.8773 56.4479 15.057C56.5541 15.0769 56.639 15.1169 56.724 15.1767C56.9363 15.2766 56.9788 15.4762 57 15.6958C57 15.7757 56.9575 15.8356 56.8514 15.8555C56.7664 15.8755 56.6603 15.8555 56.6603 15.7557C56.6178 15.576 56.4692 15.5561 56.3206 15.5161C55.5774 15.3365 54.813 15.2366 54.0487 15.1568C53.6028 15.0969 53.1569 15.057 52.6898 15.017C52.2014 14.9771 51.7131 14.9372 51.3096 14.9571Z" fill="#292E35"/>
<path d="M39.8516 17.5393C39.9906 17.435 40.0949 17.296 40.2339 17.1917C40.929 16.5314 41.6588 15.9406 42.493 15.5235C42.8405 15.315 43.1533 15.2802 43.4661 15.593C43.5704 15.6625 43.6746 15.6973 43.7789 15.7668C44.0222 15.8711 44.1612 16.0796 44.1959 16.3576C44.2307 16.6357 44.2654 16.9137 44.2654 17.1917C44.2654 17.7131 44.474 18.1301 44.8563 18.4777C45.0648 18.6862 45.3081 18.7904 45.5861 18.7209C45.8294 18.6862 46.0379 18.6167 46.2812 18.6514C46.3855 18.6514 46.4897 18.6514 46.5245 18.7904C46.5593 18.8947 46.4897 18.999 46.4202 19.0685C46.2812 19.1728 46.1422 19.1727 46.0032 19.2075C45.5514 19.2423 45.1343 19.138 44.752 18.9642C43.8831 18.5819 43.2576 17.9216 43.049 16.9832C43.0143 16.8789 43.0143 16.7747 43.0143 16.7052C42.9795 16.3924 42.9795 16.3924 42.7015 16.5314C41.8674 16.8789 41.207 17.435 40.5467 18.0258C39.5041 18.999 38.6352 20.1459 37.9053 21.3623C37.6621 21.7794 37.4535 22.1964 37.2102 22.6482C37.0365 22.9958 36.4109 23.1 36.1329 22.7872C35.9938 22.683 35.9938 22.544 36.0286 22.3702C36.0633 22.0574 36.1676 21.7446 36.2719 21.4666C36.6542 20.2154 37.1407 18.999 37.7316 17.8521C38.0096 17.3308 38.2529 16.8094 38.5309 16.2881C38.7047 15.9753 38.9132 15.9406 39.1565 16.1491C39.2955 16.2534 39.4345 16.3229 39.5736 16.3924C39.9559 16.6009 40.0601 16.8094 39.8864 17.2265C39.8516 17.296 39.7821 17.4003 39.8516 17.5393Z" fill="#292E35"/>
<path d="M32.0117 20.1459C31.8032 20.3544 31.5599 20.5282 31.3514 20.7367C31.0386 21.0495 30.691 21.397 30.3782 21.7098C30.1002 21.9879 29.7526 22.2659 29.4398 22.5092C28.7795 22.9958 28.2582 22.9262 27.5283 22.4049C27.3198 22.2659 27.2503 22.0574 27.2155 21.8141C27.1113 21.397 27.146 20.98 27.2503 20.5977C27.3893 19.9373 27.6674 19.3465 28.0497 18.7904C28.5362 18.0258 29.1618 17.4002 29.8569 16.8442C30.3087 16.4966 30.7953 16.2881 31.3166 16.2186C31.8379 16.1491 32.3592 16.2533 32.7415 16.6704C32.811 16.7399 32.8806 16.7747 32.9501 16.8094C33.0543 16.8789 33.1586 17.0527 33.3324 17.0179C33.4714 17.0179 33.5061 16.8442 33.5757 16.7399C33.7494 16.5661 33.8537 16.5314 34.0275 16.6704C34.1665 16.8094 34.3055 16.8789 34.4445 16.9832C34.7226 17.157 34.7573 17.3307 34.5488 17.574C34.0275 18.3039 33.6104 19.1032 33.2629 19.9373C33.1238 20.2501 33.0543 20.5629 33.0891 20.9105C33.0891 21.1885 33.1586 21.258 33.4366 21.1538C33.8884 21.0147 34.2707 20.8062 34.6878 20.5629C35.5567 20.0764 36.4255 19.5203 37.2249 18.8947C37.3639 18.7904 37.5029 18.7209 37.6767 18.6514C37.7115 18.6167 37.781 18.5819 37.8505 18.6514C37.92 18.7209 37.8852 18.7904 37.8505 18.8599C37.781 18.999 37.6767 19.138 37.5377 19.2422C36.5646 20.0416 35.5219 20.7714 34.4098 21.4318C34.3055 21.4665 34.2012 21.5361 34.097 21.5708C33.1934 21.9879 32.255 21.5013 32.116 20.4934C32.116 20.3891 32.1507 20.2849 32.0117 20.1459ZM28.5015 21.9531C28.6405 21.9184 28.7447 21.8141 28.8838 21.7446C29.3703 21.397 29.8569 20.98 30.274 20.5629C30.8995 19.9721 31.4904 19.3813 32.0117 18.7557C32.2897 18.4429 32.5678 18.1301 32.8458 17.7825C32.9153 17.713 33.0196 17.6088 32.9501 17.4698C32.8806 17.3307 32.7415 17.2612 32.5678 17.2612C32.4287 17.2612 32.2897 17.296 32.1855 17.3655C31.6294 17.6088 31.1428 17.9216 30.7258 18.3386C30.3087 18.7209 29.9264 19.1727 29.5441 19.6593C29.1271 20.2154 28.7795 20.8062 28.571 21.5013C28.5362 21.6403 28.4667 21.7793 28.5015 21.9531Z" fill="#292E35"/>
<path d="M26.0117 10.3797C25.8379 10.5187 25.7337 10.7273 25.5947 10.901C24.7953 11.8742 23.9959 12.8473 23.2313 13.8204C22.5015 14.7936 21.8064 15.7667 21.0766 16.7051C20.1034 17.9562 19.165 19.2769 18.1919 20.5281C17.5663 21.397 16.906 22.2311 16.2457 23.0652C15.9329 23.4475 15.5506 23.795 15.203 24.1426C14.5427 24.7334 13.0482 24.5944 12.5964 23.5865C12.2489 22.8914 12.0751 22.1616 11.9361 21.397C11.7623 20.1805 11.7623 18.9294 11.8666 17.6782C12.0751 15.2454 12.6312 12.9168 13.3263 10.5535C13.3958 10.2755 13.4653 9.96267 13.5695 9.68463C13.5695 9.61512 13.6043 9.54561 13.5348 9.51086C13.4653 9.51086 13.4653 9.58037 13.4305 9.61512C13.1177 10.206 12.7702 10.8315 12.4574 11.4224C11.8666 12.4998 11.2757 13.5772 10.7197 14.6546C10.2331 15.5234 9.78128 16.3923 9.29472 17.2264C8.00879 19.5897 6.79238 21.9878 5.57596 24.3859C4.91562 25.6718 4.25529 26.9577 3.56019 28.2089C2.93461 29.4253 2.27427 30.607 1.61393 31.7886C1.57917 31.8234 1.54442 31.8929 1.50967 31.9276C1.30114 32.4142 0.884081 32.4837 0.43227 32.449C0.119478 32.449 -0.0542957 32.2404 0.0152137 31.8929C0.119478 31.5106 0.258497 31.163 0.397515 30.8155C0.918836 29.4601 1.54442 28.1394 2.1005 26.8187C2.8651 25.1157 3.69921 23.4127 4.53332 21.7445C4.7071 21.397 4.88087 21.0494 5.01989 20.6671C5.19366 20.2501 5.26317 19.7635 5.29793 19.2769C5.33268 18.5123 5.29793 17.7477 5.12415 16.9831C4.91563 16.1143 4.49857 15.3149 3.97725 14.585C3.49068 13.9247 2.93461 13.2991 2.51755 12.604C2.17 11.9784 1.85721 11.3181 1.75295 10.5883C1.64868 9.8584 1.82246 9.19807 2.1005 8.53773C2.37853 7.87739 2.76083 7.32131 3.21265 6.79999C3.76872 6.1049 4.3943 5.44456 5.05464 4.85373C5.95827 4.05437 6.9314 3.35928 7.93928 2.69894C8.8429 2.14286 9.81604 1.58679 10.7892 1.13498C11.8318 0.648413 12.9092 0.231356 14.0561 0.0575826C14.3689 -0.0119259 14.7164 -0.0119257 15.0292 0.0228286C15.1335 0.0228286 15.2378 0.0228281 15.3073 0.0923366C15.8981 0.405129 16.5584 0.578903 17.045 1.06547C17.3578 1.37826 17.5316 1.76056 17.6011 2.21237C17.7401 2.76845 17.6706 3.32453 17.5663 3.8806C17.3578 5.20128 16.9755 6.45245 16.5932 7.73837C16.1066 9.40659 15.6201 11.0748 15.1683 12.743C14.8207 13.9942 14.5079 15.2106 14.2646 16.4618C14.0561 17.5044 13.9171 18.5471 13.8128 19.5897C13.7086 20.4933 13.7433 21.397 13.7433 22.3353C13.7433 22.7524 13.8128 23.1695 13.9866 23.5865C14.0909 23.9341 14.1951 23.9341 14.4732 23.7255C15.0292 23.3432 15.481 22.8567 15.9329 22.3353C17.0798 21.0494 18.1224 19.694 19.165 18.3386C20.5552 16.4966 21.9454 14.6198 23.3356 12.8126C24.6563 11.0748 25.977 9.30233 27.2281 7.52984C28.1318 6.27867 28.9659 4.99275 29.8 3.70683C30.3561 2.83796 30.8774 1.96909 31.4682 1.13498C31.5725 0.926452 31.7462 0.891694 31.9548 1.03071C32.1285 1.20449 32.3718 1.30875 32.6151 1.37826C33.0322 1.48253 33.2059 1.79532 33.0669 2.21237C32.9627 2.52517 32.8584 2.83796 32.6846 3.15075C31.8505 4.71471 30.9816 6.27867 30.078 7.80788C29.4177 8.92003 28.7921 10.0322 28.1665 11.1791C27.7495 11.9089 27.3324 12.6388 26.9501 13.4034C26.4635 14.3765 25.9422 15.3496 25.4904 16.3228C25.2124 16.9831 24.8996 17.6087 24.6215 18.269C24.0655 19.6245 23.5789 21.0147 23.1966 22.4048C22.8143 23.8298 22.5363 25.2895 22.293 26.7492C22.154 27.6181 22.0844 28.4869 22.0149 29.3905C21.9454 30.3637 21.9454 31.3368 21.9802 32.3447C21.9802 33.2483 22.0497 34.1519 22.293 35.0556C22.3625 35.2293 22.432 35.4379 22.5015 35.6116C22.571 35.8202 22.6405 35.8202 22.8143 35.7159C22.9881 35.6116 23.1271 35.5074 23.2661 35.4031C23.4746 35.2988 23.5441 35.3683 23.5441 35.5421C23.5789 35.9244 23.4051 36.2025 23.1271 36.3762C22.8143 36.5153 22.4667 36.6543 22.0844 36.6195C21.7716 36.6195 21.5284 36.4805 21.3546 36.2372C21.1113 35.8897 20.9375 35.5421 20.7985 35.1251C20.59 34.3605 20.451 33.5959 20.3815 32.7965C20.1382 31.0588 20.1729 29.321 20.2424 27.5833C20.3467 25.3242 20.6943 23.1347 21.3546 20.9799C21.8759 19.3117 22.5015 17.713 23.1966 16.1143C23.7874 14.7241 24.4825 13.3686 25.1776 12.0132C25.4209 11.5266 25.6989 11.0748 25.977 10.623C26.0117 10.5535 26.0812 10.484 26.0117 10.3797ZM6.16679 18.2343C6.27106 18.1648 6.30581 18.0953 6.34057 18.0605C7.13993 16.3923 8.04355 14.7588 8.91241 13.1253C9.29472 12.3955 9.64226 11.6657 10.0246 10.9358C10.2331 10.5883 10.4069 10.2407 10.6154 9.89316C11.2062 8.81577 11.8318 7.73837 12.4226 6.62622C12.9787 5.61833 13.5 4.61045 14.0909 3.63731C14.4732 3.01173 14.8207 2.38615 15.1683 1.76056C15.2725 1.62154 15.342 1.41302 15.5506 1.34351C15.6201 1.30875 15.6896 1.34351 15.6896 1.23924C15.6548 1.13498 15.6201 1.06547 15.5158 1.06547C15.4463 1.06547 15.3768 1.06547 15.2725 1.06547C14.3689 1.20449 13.4653 1.51728 12.5964 1.86483C11.8666 2.14286 11.1367 2.52517 10.4416 2.90747C9.71177 3.28977 9.01668 3.70683 8.35634 4.15864C7.17468 4.95799 6.06253 5.86162 5.0894 6.8695C4.56808 7.42558 4.04676 8.01641 3.66446 8.64199C2.96936 9.85841 2.76083 11.0748 3.45593 12.3607C3.80348 12.9863 4.18578 13.5424 4.60283 14.1332C5.29793 15.0716 5.854 16.0795 6.06253 17.2612C6.09728 17.5739 6.13204 17.8867 6.16679 18.2343Z" fill="#292E35"/>
<path d="M80.874 45.5399C80.1068 45.5399 79.4581 45.3468 78.9277 44.9606C78.3974 44.5693 77.9958 44.0416 77.7229 43.3774C77.45 42.708 77.3136 41.9589 77.3136 41.1299C77.3136 40.2855 77.45 39.5337 77.7229 38.8747C78.0009 38.2105 78.4077 37.6879 78.9432 37.3069C79.4787 36.9259 80.1377 36.7354 80.9203 36.7354C81.6824 36.7354 82.3363 36.9284 82.882 37.3146C83.4278 37.7008 83.8449 38.2259 84.1332 38.8901C84.4267 39.5543 84.5734 40.3009 84.5734 41.1299C84.5734 41.964 84.4267 42.7132 84.1332 43.3774C83.8397 44.0416 83.4175 44.5693 82.8666 44.9606C82.3157 45.3468 81.6515 45.5399 80.874 45.5399ZM77.1205 49.0153V36.967H78.14V43.2461H78.2635V49.0153H77.1205ZM80.7581 44.4818C81.34 44.4818 81.824 44.335 82.2101 44.0416C82.5963 43.7481 82.8846 43.349 83.0751 42.8445C83.2708 42.3347 83.3686 41.7632 83.3686 41.1299C83.3686 40.5017 83.2734 39.9354 83.0828 39.4308C82.8923 38.9262 82.6014 38.5271 82.2101 38.2337C81.824 37.9402 81.3322 37.7934 80.735 37.7934C80.1532 37.7934 79.6692 37.935 79.283 38.2182C78.902 38.5014 78.6162 38.8953 78.4257 39.3999C78.2352 39.8993 78.14 40.476 78.14 41.1299C78.14 41.7735 78.2352 42.3502 78.4257 42.8599C78.6162 43.3645 78.9046 43.7609 79.2907 44.0493C79.6769 44.3376 80.166 44.4818 80.7581 44.4818Z" fill="#292E35"/>
<path d="M71.4703 45.5399C70.6413 45.5399 69.9333 45.3519 69.3464 44.9761C68.7594 44.6002 68.3089 44.0802 67.9948 43.416C67.6807 42.7518 67.5237 41.9897 67.5237 41.1299C67.5237 40.2546 67.6833 39.4874 68.0025 38.8284C68.3218 38.1693 68.7749 37.657 69.3618 37.2914C69.9539 36.9207 70.6568 36.7354 71.4703 36.7354C72.3044 36.7354 73.0149 36.9233 73.6019 37.2991C74.194 37.6699 74.6445 38.1873 74.9535 38.8515C75.2675 39.5106 75.4246 40.27 75.4246 41.1299C75.4246 42.0052 75.2675 42.7749 74.9535 43.4391C74.6394 44.0982 74.1863 44.6131 73.5942 44.9838C73.0021 45.3545 72.2941 45.5399 71.4703 45.5399ZM71.4703 44.4509C72.3971 44.4509 73.087 44.1445 73.5401 43.5318C73.9932 42.914 74.2198 42.1133 74.2198 41.1299C74.2198 40.1207 73.9906 39.3175 73.5324 38.7202C73.0793 38.123 72.3919 37.8243 71.4703 37.8243C70.8473 37.8243 70.3324 37.9659 69.9256 38.2491C69.524 38.5271 69.2228 38.9159 69.022 39.4153C68.8263 39.9096 68.7285 40.4811 68.7285 41.1299C68.7285 42.1339 68.9602 42.9397 69.4236 43.5473C69.887 44.1497 70.5692 44.4509 71.4703 44.4509Z" fill="#292E35"/>
<path d="M64.8397 45.308V41.0525C64.8397 40.5891 64.796 40.1643 64.7084 39.7782C64.6209 39.3869 64.4793 39.047 64.2837 38.7587C64.0931 38.4652 63.8434 38.2387 63.5345 38.079C63.2307 37.9194 62.86 37.8396 62.4223 37.8396C62.0207 37.8396 61.6655 37.9091 61.3565 38.0482C61.0528 38.1872 60.7953 38.388 60.5842 38.6506C60.3783 38.908 60.2212 39.2221 60.1131 39.5928C60.005 39.9635 59.9509 40.3857 59.9509 40.8594L59.1477 40.6818C59.1477 39.8271 59.297 39.1088 59.5956 38.527C59.8943 37.9452 60.3062 37.505 60.8314 37.2063C61.3565 36.9077 61.959 36.7584 62.6386 36.7584C63.138 36.7584 63.5731 36.8356 63.9438 36.9901C64.3197 37.1445 64.6364 37.3531 64.8938 37.6157C65.1564 37.8782 65.3675 38.1795 65.5271 38.5193C65.6867 38.8539 65.8026 39.2118 65.8746 39.5928C65.9467 39.9687 65.9828 40.3445 65.9828 40.7204V45.308H64.8397ZM58.8079 45.308V34.1865H59.8351V40.4655H59.9509V45.308H58.8079Z" fill="#292E35"/>
<path d="M53.159 45.54C52.3815 45.54 51.6812 45.4113 51.0582 45.1538C50.4404 44.8912 49.9281 44.5205 49.5213 44.0417C49.1197 43.5628 48.8571 42.9939 48.7335 42.3348L49.892 42.1417C50.0774 42.8626 50.4687 43.429 51.0659 43.8409C51.6632 44.2476 52.3763 44.451 53.2053 44.451C53.7511 44.451 54.2402 44.366 54.6727 44.1961C55.1052 44.0211 55.445 43.7739 55.6922 43.4547C55.9393 43.1355 56.0629 42.757 56.0629 42.3194C56.0629 42.031 56.0114 41.7865 55.9084 41.5857C55.8055 41.3797 55.669 41.2098 55.4991 41.0759C55.3292 40.9421 55.1438 40.8314 54.943 40.7438C54.7422 40.6512 54.5466 40.5765 54.3561 40.5199L51.5371 39.678C51.1972 39.5802 50.8832 39.4566 50.5948 39.3073C50.3065 39.1528 50.0542 38.9701 49.8379 38.759C49.6268 38.5427 49.4621 38.2904 49.3437 38.0021C49.2252 37.7137 49.166 37.3842 49.166 37.0135C49.166 36.3853 49.3308 35.8421 49.6603 35.3839C49.9898 34.9256 50.4404 34.5729 51.0119 34.3258C51.5834 34.0787 52.2347 33.9577 52.9659 33.9628C53.7073 33.9628 54.3689 34.0941 54.9507 34.3567C55.5377 34.6193 56.0217 34.9951 56.4027 35.4843C56.7837 35.9683 57.036 36.5424 57.1596 37.2066L55.9702 37.4228C55.893 36.9388 55.7154 36.5192 55.4373 36.1639C55.1593 35.8087 54.804 35.5358 54.3715 35.3453C53.9441 35.1496 53.473 35.0492 52.9581 35.0441C52.4587 35.0441 52.0133 35.129 51.622 35.2989C51.2359 35.4637 50.9295 35.6902 50.703 35.9786C50.4764 36.2669 50.3631 36.5964 50.3631 36.9672C50.3631 37.343 50.4661 37.6442 50.6721 37.8708C50.8832 38.0973 51.1406 38.275 51.4444 38.4037C51.7533 38.5324 52.0519 38.638 52.3403 38.7203L54.5182 39.3614C54.7448 39.4232 55.01 39.5133 55.3137 39.6317C55.6227 39.745 55.9213 39.9097 56.2096 40.126C56.5031 40.3371 56.7451 40.6151 56.9356 40.9601C57.1261 41.3051 57.2214 41.7427 57.2214 42.273C57.2214 42.7879 57.1184 43.2487 56.9125 43.6555C56.7117 44.0623 56.4259 44.4047 56.0552 44.6827C55.6896 44.9607 55.2597 45.1718 54.7654 45.316C54.2762 45.4653 53.7408 45.54 53.159 45.54Z" fill="#292E35"/>
</svg>
